<svg xmlns="http://www.w3.org/2000/svg" xmlns:xlink="http://www.w3.org/1999/xlink" width="1080" zoomAndPan="magnify" viewBox="0 0 810 809.999993" height="1080" preserveAspectRatio="xMidYMid meet" version="1.2"><g id="e63ec50577"><path style=" stroke:none;fill-rule:nonzero;fill:#000000;fill-opacity:1;" d="M 434.941406 412.800781 C 403.328125 467.59375 352.492188 504.375 295.871094 519.546875 C 239.25 534.726562 176.847656 528.300781 122.085938 496.667969 C 67.324219 465.039062 30.550781 414.183594 15.382812 357.539062 C 0.207031 300.902344 6.636719 238.464844 38.253906 183.679688 C 69.871094 128.894531 120.703125 92.109375 177.324219 76.933594 C 233.941406 61.761719 296.347656 68.1875 351.109375 99.816406 C 405.875 131.449219 442.644531 182.304688 457.8125 238.941406 C 460.019531 247.183594 461.765625 255.542969 463.050781 263.980469 C 438.242188 275.925781 415.625 291.804688 396.015625 310.96875 C 397.46875 292.675781 395.738281 274.359375 391.042969 256.839844 C 380.453125 217.316406 354.785156 181.8125 316.539062 159.71875 C 278.300781 137.632812 234.71875 133.144531 195.214844 143.730469 C 155.703125 154.324219 120.21875 180.007812 98.128906 218.265625 C 76.054688 256.527344 71.5625 300.117188 82.152344 339.644531 C 88.417969 363.03125 99.96875 385.007812 116.273438 403.636719 C 135.335938 378.027344 162.382812 358.71875 193.722656 349.378906 C 179.292969 337.191406 170.121094 318.953125 170.121094 298.582031 C 170.121094 261.878906 199.863281 232.117188 236.554688 232.117188 C 273.242188 232.117188 302.984375 261.878906 302.984375 298.578125 C 302.984375 318.953125 293.8125 337.191406 279.378906 349.378906 C 310.742188 358.71875 337.792969 378.042969 356.867188 403.679688 C 363.625 395.945312 369.738281 387.449219 375.066406 378.21875 C 406.675781 323.429688 457.511719 286.644531 514.132812 271.472656 C 570.753906 256.292969 633.15625 262.71875 687.921875 294.351562 C 742.683594 325.984375 779.453125 376.839844 794.625 433.480469 C 809.796875 490.117188 803.367188 552.554688 771.75 607.339844 C 740.132812 662.125 689.304688 698.910156 632.679688 714.085938 C 576.0625 729.261719 513.65625 722.832031 458.894531 691.203125 C 404.128906 659.574219 367.363281 608.71875 352.191406 552.078125 C 349.984375 543.835938 348.238281 535.476562 346.957031 527.039062 C 371.765625 515.09375 394.378906 499.21875 413.988281 480.050781 C 412.539062 498.34375 414.265625 516.664062 418.960938 534.179688 C 425.214844 557.515625 436.714844 579.449219 452.964844 598.046875 C 472.042969 572.332031 499.144531 552.941406 530.574219 543.578125 C 516.144531 531.386719 506.976562 513.152344 506.976562 492.777344 C 506.976562 456.078125 536.71875 426.324219 573.410156 426.324219 C 610.097656 426.316406 639.839844 456.078125 639.839844 492.777344 C 639.839844 513.152344 630.667969 531.386719 616.234375 543.578125 C 647.652344 552.941406 674.761719 572.324219 693.839844 598.027344 C 700.53125 590.347656 706.589844 581.910156 711.875 572.753906 C 733.949219 534.496094 738.441406 490.90625 727.855469 451.375 C 717.265625 411.851562 691.589844 376.34375 653.355469 354.257812 C 615.105469 332.171875 571.535156 327.679688 532.027344 338.269531 C 492.511719 348.859375 457.023438 374.546875 434.941406 412.800781 Z M 236.554688 589.015625 C 273.246094 589.015625 302.988281 618.769531 302.988281 655.472656 C 302.988281 692.179688 273.246094 721.933594 236.554688 721.933594 C 199.863281 721.933594 170.121094 692.179688 170.121094 655.472656 C 170.121094 618.769531 199.863281 589.015625 236.554688 589.015625 Z M 573.410156 69.089844 C 610.097656 69.089844 639.839844 98.84375 639.839844 135.542969 C 639.839844 172.246094 610.097656 202 573.410156 202 C 536.722656 202 506.980469 172.246094 506.980469 135.542969 C 506.980469 98.84375 536.722656 69.089844 573.410156 69.089844 Z M 573.410156 69.089844 "/></g></svg>