<svg xmlns="http://www.w3.org/2000/svg" xmlns:xlink="http://www.w3.org/1999/xlink" width="1080" zoomAndPan="magnify" viewBox="0 0 810 809.999993" height="1080" preserveAspectRatio="xMidYMid meet" version="1.2"><g id="775b28cb5e"><path style=" stroke:none;fill-rule:evenodd;fill:#000000;fill-opacity:1;" d="M 529.921875 348.265625 C 505.460938 346.34375 481.316406 346.6875 457.601562 357.488281 C 415.273438 376.753906 391.324219 413.300781 357.890625 443.101562 C 334.074219 464.324219 304.710938 474.914062 275.277344 485.675781 C 260.140625 491.207031 243.105469 497.832031 226.785156 498.78125 C 220.285156 499.15625 222.792969 486.769531 222.59375 482.945312 C 221.808594 467.769531 217.828125 453.519531 205.332031 443.832031 C 192.082031 433.558594 174.707031 433.0625 158.703125 431.691406 C 148.625 430.828125 136.046875 430.703125 130.734375 420.417969 C 125.191406 409.683594 132.242188 396.214844 138.269531 386.382812 C 132.421875 387.097656 126.386719 386.71875 123.285156 386.523438 C 91.1875 384.5 56.25 378.054688 28.394531 361.3125 C 20.226562 356.402344 12.59375 350.613281 5.8125 343.917969 C 4.820312 342.933594 0.65625 339.65625 1.121094 337.863281 C 1.484375 336.480469 10.542969 338.386719 11.53125 338.460938 C 24.28125 339.398438 37.21875 339.554688 49.980469 338.894531 C 81.648438 337.257812 113.652344 333.191406 144.601562 326.320312 C 221.949219 309.152344 297.308594 284.582031 374.851562 267.75 C 433.335938 255.054688 491.367188 241.71875 548.730469 224.539062 C 550.859375 223.90625 553.144531 223.339844 555.535156 222.816406 C 553.71875 217.832031 552.101562 212.800781 550.824219 207.710938 C 545.933594 188.289062 551.132812 169.316406 553.121094 149.9375 C 553.609375 145.1875 550.164062 140.148438 550.417969 135.0625 C 551.175781 119.925781 560.324219 104.019531 572.867188 95.703125 C 585.042969 87.605469 599.25 86.351562 613.21875 83.625 C 629.078125 80.515625 645.1875 75.984375 660.511719 70.875 C 685.433594 62.558594 713.027344 42 739.214844 59.570312 C 753.015625 68.804688 751.699219 97.511719 734.640625 102.789062 C 722.75 106.453125 707.628906 97.847656 695.738281 96.570312 C 663.375 93.097656 641.765625 108.429688 629.195312 136.917969 C 626.460938 143.113281 623.484375 149.042969 619.761719 154.707031 C 619.480469 155.117188 615.808594 159.261719 616.085938 159.816406 C 617.226562 162.109375 623.003906 163.914062 625.046875 164.902344 C 633.367188 168.855469 642.367188 171.4375 649.820312 177.050781 C 655.804688 181.5625 660.066406 188.449219 660.605469 195.996094 C 661.277344 205.390625 656.097656 213.617188 664.53125 216.019531 C 663.53125 214.632812 662.707031 213.148438 662.148438 211.550781 C 661.324219 209.214844 661.574219 205.734375 664.859375 206.140625 C 666.535156 206.347656 667.925781 207.699219 668.988281 208.914062 C 669.335938 209.3125 669.667969 209.722656 669.96875 210.164062 C 669.996094 210.199219 670.351562 210.808594 670.386719 210.792969 C 670.410156 210.785156 670.34375 209.132812 670.363281 208.996094 C 670.648438 207.167969 672.53125 207.238281 673.945312 207.691406 C 675.902344 208.320312 677.476562 209.566406 678.78125 211.089844 C 679.515625 210.03125 680.730469 209.339844 682.457031 209.371094 C 685.433594 209.425781 688.445312 210.832031 691.140625 212.371094 C 713.035156 202.003906 705.238281 173.484375 720.253906 156.417969 C 732.789062 142.175781 754.695312 145.597656 771.433594 143.210938 C 776.203125 142.511719 783.429688 137.8125 788.097656 139.28125 C 791.855469 140.488281 789.546875 146.730469 792.339844 147.71875 C 795.703125 148.921875 799.253906 141.933594 801.566406 142.585938 C 802.839844 142.945312 799.960938 150.34375 801.277344 151.332031 C 802.71875 152.417969 808.003906 148.128906 808.746094 149.066406 C 809.457031 149.9375 808.125 154.515625 807.941406 155.503906 C 806.601562 162.613281 802.253906 168.300781 800.875 175.414062 C 799.855469 180.714844 799.683594 186.355469 797.9375 191.472656 C 796.671875 195.179688 793.339844 198.632812 793.21875 202.683594 C 793.082031 207.324219 800.074219 210.851562 798.457031 215.699219 C 797.496094 218.589844 792.769531 219.058594 790.847656 221.34375 C 788.804688 223.773438 791.195312 227.265625 790.136719 229.996094 C 789.378906 231.957031 786.710938 232.074219 786.011719 233.90625 C 784.222656 238.609375 787.476562 244.292969 783.785156 248.75 C 779.183594 254.304688 769.550781 254.621094 763.039062 255.410156 C 762.550781 255.46875 759.863281 255.589844 757.6875 255.886719 C 758.550781 256.394531 759.105469 257.15625 758.632812 258.226562 C 758.617188 258.261719 758.601562 258.296875 758.582031 258.332031 C 760.691406 258.59375 762.792969 259.269531 764.636719 260.234375 C 766.125 261.015625 767.167969 262.460938 765.445312 263.691406 C 764.6875 264.230469 763.804688 264.597656 762.882812 264.859375 C 766.226562 268.046875 769.21875 271.589844 772.144531 275.160156 C 785.40625 291.339844 796.523438 311.636719 785.445312 332.316406 C 778.144531 345.945312 764.625 342.933594 754.53125 350.789062 C 750.5 353.921875 749.578125 359.601562 746.707031 363.613281 C 743.199219 368.507812 737.460938 371.625 732.367188 374.589844 C 727.796875 377.246094 723.007812 379.53125 718.046875 381.347656 C 715.496094 382.277344 710.082031 380.316406 710.082031 383.027344 C 710.082031 383.355469 713.816406 384.621094 714.015625 384.714844 C 718.722656 386.875 723.601562 388.625 728.476562 390.355469 C 736.539062 393.21875 750.480469 402.847656 759.296875 401.617188 C 768.382812 400.351562 778.339844 385.109375 788.074219 389.214844 C 799.003906 393.828125 799.101562 415.695312 799.027344 425.15625 C 798.996094 429.054688 799.050781 435.222656 795.851562 438.105469 C 792.800781 440.847656 787.078125 440.34375 783.308594 440.613281 C 766.109375 441.855469 757.15625 434.339844 741.800781 429 C 721.875 422.070312 700.105469 427.0625 679.59375 424.328125 C 668.085938 422.796875 654.671875 420.496094 644.132812 415.390625 C 641.269531 414.003906 636 406.179688 633.582031 406.050781 C 627.265625 405.707031 609.5625 418.484375 606.246094 423.640625 C 605.953125 424.097656 622.007812 427.148438 623.792969 427.695312 C 634.464844 430.964844 644.433594 438.46875 653.898438 444.21875 C 665.085938 451.019531 674.324219 460.0625 684.785156 467.785156 C 707.292969 484.398438 748.542969 505.542969 740.09375 540.828125 C 734.554688 563.96875 704.714844 572.441406 684.550781 576.652344 C 658.359375 582.121094 629.457031 588.539062 602.644531 587.792969 C 579.355469 587.148438 555.894531 579.324219 532.546875 583.289062 C 505.191406 587.9375 493.992188 626.949219 480.34375 647.160156 C 474.554688 655.730469 463.753906 668.90625 452.085938 668.613281 C 439.28125 668.296875 446.109375 644.734375 447.011719 637.84375 C 448.628906 625.488281 450.671875 612.75 455.429688 601.144531 C 459.613281 590.929688 466 581.980469 469.390625 571.339844 C 470.410156 568.152344 470.824219 564.425781 471.285156 560.644531 C 455.519531 570.132812 437.964844 576.578125 422.097656 585.945312 C 411.59375 592.144531 403.632812 602.867188 392.582031 607.851562 C 381.160156 613 368.0625 610.707031 356.667969 616.316406 C 341.691406 623.6875 329.242188 636.621094 314.847656 645.238281 C 287.546875 661.585938 258.21875 674.554688 230.382812 690.046875 C 212.109375 700.21875 192.457031 709.925781 177.355469 724.683594 C 168.035156 733.789062 162.835938 746.167969 152.652344 754.460938 C 144.796875 760.851562 132.292969 768.101562 125.246094 756.476562 C 110.609375 732.324219 138.507812 710.140625 146.441406 690.304688 C 151.679688 677.207031 151.722656 662.546875 164.648438 654.03125 C 173.980469 647.886719 185.296875 651.644531 195.679688 651.140625 C 206.976562 650.59375 219.066406 645.902344 228.699219 640.167969 C 260.636719 621.144531 280.902344 589.722656 308.78125 566.101562 C 323.335938 553.769531 342.015625 551.324219 356.738281 540.09375 C 365.925781 533.082031 371.878906 523.371094 378.832031 514.324219 C 389.234375 500.792969 399.964844 487.539062 411.761719 475.183594 C 424.777344 461.550781 444.890625 453.820312 456.492188 439.3125 C 462.296875 432.054688 465.410156 422.917969 471.3125 415.558594 C 489.917969 392.351562 511.0625 371.28125 529.921875 348.265625 Z M 497.234375 541.53125 C 498.941406 541.875 500.523438 542.203125 501.894531 542.394531 C 518.199219 544.691406 534.753906 545.394531 550.796875 541.066406 C 568.132812 536.390625 583.765625 528.4375 600.203125 521.484375 C 605.71875 519.148438 611.269531 516.761719 617.011719 515.035156 C 620.234375 514.066406 626.894531 512.949219 626.894531 512.949219 C 626.894531 512.949219 620.917969 512.910156 617.933594 512.757812 C 611.359375 512.429688 604.796875 511.824219 598.234375 511.289062 C 579.203125 509.738281 560.074219 508.011719 541.199219 505.101562 C 539.816406 504.890625 538.4375 504.671875 537.058594 504.445312 C 523.851562 516.902344 511.03125 529.84375 497.234375 541.53125 Z M 497.234375 541.53125 "/></g></svg>