<svg xmlns="http://www.w3.org/2000/svg" xmlns:xlink="http://www.w3.org/1999/xlink" width="1080" zoomAndPan="magnify" viewBox="0 0 810 809.999993" height="1080" preserveAspectRatio="xMidYMid meet" version="1.2"><g id="9a0c42d9e2"><path style=" stroke:none;fill-rule:nonzero;fill:#000000;fill-opacity:1;" d="M 447.632812 191.84375 C 447.632812 193.238281 447.5625 194.632812 447.425781 196.019531 C 447.289062 197.410156 447.085938 198.789062 446.8125 200.160156 C 446.539062 201.527344 446.199219 202.882812 445.796875 204.21875 C 445.390625 205.554688 444.921875 206.867188 444.386719 208.15625 C 443.851562 209.445312 443.253906 210.707031 442.597656 211.9375 C 441.9375 213.167969 441.222656 214.367188 440.445312 215.527344 C 439.671875 216.6875 438.839844 217.808594 437.953125 218.886719 C 437.070312 219.964844 436.132812 221 435.144531 221.988281 C 434.15625 222.972656 433.125 223.910156 432.046875 224.796875 C 430.964844 225.683594 429.84375 226.511719 428.683594 227.289062 C 427.523438 228.066406 426.328125 228.78125 425.097656 229.441406 C 423.863281 230.097656 422.605469 230.695312 421.3125 231.226562 C 420.023438 231.761719 418.710938 232.234375 417.375 232.636719 C 416.039062 233.042969 414.6875 233.382812 413.316406 233.65625 C 411.949219 233.925781 410.566406 234.132812 409.179688 234.269531 C 407.789062 234.40625 406.394531 234.472656 405 234.472656 C 403.605469 234.472656 402.210938 234.40625 400.820312 234.269531 C 399.433594 234.132812 398.050781 233.925781 396.683594 233.65625 C 395.3125 233.382812 393.960938 233.042969 392.625 232.636719 C 391.289062 232.234375 389.976562 231.761719 388.683594 231.226562 C 387.394531 230.695312 386.136719 230.097656 384.902344 229.441406 C 383.671875 228.78125 382.476562 228.066406 381.316406 227.289062 C 380.152344 226.511719 379.035156 225.683594 377.953125 224.796875 C 376.875 223.910156 375.84375 222.972656 374.855469 221.988281 C 373.867188 221 372.929688 219.964844 372.046875 218.886719 C 371.160156 217.808594 370.328125 216.6875 369.554688 215.527344 C 368.777344 214.367188 368.058594 213.167969 367.402344 211.9375 C 366.742188 210.707031 366.148438 209.445312 365.613281 208.15625 C 365.078125 206.867188 364.609375 205.554688 364.203125 204.21875 C 363.796875 202.882812 363.460938 201.527344 363.1875 200.160156 C 362.914062 198.789062 362.710938 197.410156 362.574219 196.019531 C 362.4375 194.632812 362.367188 193.238281 362.367188 191.84375 C 362.367188 190.445312 362.4375 189.054688 362.574219 187.664062 C 362.710938 186.273438 362.914062 184.894531 363.1875 183.523438 C 363.460938 182.15625 363.796875 180.804688 364.203125 179.464844 C 364.609375 178.128906 365.078125 176.816406 365.613281 175.527344 C 366.148438 174.238281 366.742188 172.976562 367.402344 171.746094 C 368.058594 170.515625 368.777344 169.316406 369.554688 168.15625 C 370.328125 166.996094 371.160156 165.875 372.046875 164.796875 C 372.929688 163.71875 373.867188 162.683594 374.855469 161.695312 C 375.84375 160.710938 376.875 159.773438 377.953125 158.886719 C 379.035156 158 380.152344 157.171875 381.316406 156.394531 C 382.476562 155.621094 383.671875 154.902344 384.902344 154.246094 C 386.136719 153.585938 387.394531 152.988281 388.683594 152.457031 C 389.976562 151.921875 391.289062 151.453125 392.625 151.046875 C 393.960938 150.640625 395.3125 150.300781 396.683594 150.03125 C 398.050781 149.757812 399.433594 149.550781 400.820312 149.414062 C 402.210938 149.277344 403.605469 149.210938 405 149.210938 C 406.394531 149.210938 407.789062 149.277344 409.179688 149.414062 C 410.566406 149.550781 411.949219 149.757812 413.316406 150.03125 C 414.6875 150.300781 416.039062 150.640625 417.375 151.046875 C 418.710938 151.453125 420.023438 151.921875 421.3125 152.457031 C 422.605469 152.988281 423.863281 153.585938 425.097656 154.246094 C 426.328125 154.902344 427.523438 155.621094 428.683594 156.394531 C 429.84375 157.171875 430.964844 158 432.046875 158.886719 C 433.125 159.773438 434.15625 160.710938 435.144531 161.695312 C 436.132812 162.683594 437.070312 163.71875 437.953125 164.796875 C 438.839844 165.875 439.671875 166.996094 440.445312 168.15625 C 441.222656 169.316406 441.9375 170.515625 442.597656 171.746094 C 443.253906 172.976562 443.851562 174.238281 444.386719 175.527344 C 444.921875 176.816406 445.390625 178.128906 445.796875 179.46875 C 446.199219 180.804688 446.539062 182.15625 446.8125 183.523438 C 447.085938 184.894531 447.289062 186.273438 447.425781 187.664062 C 447.5625 189.054688 447.632812 190.445312 447.632812 191.84375 Z M 447.632812 191.84375 "/><path style=" stroke:none;fill-rule:nonzero;fill:#000000;fill-opacity:1;" d="M 593.804688 259.660156 C 599.929688 249.449219 596.273438 235.828125 585.871094 230.070312 C 571.363281 222.015625 562.722656 207.726562 562.722656 191.84375 C 562.722656 175.960938 571.363281 161.667969 585.871094 153.613281 C 596.265625 147.839844 599.945312 134.222656 593.804688 124.023438 L 559.726562 67.214844 C 553.835938 57.347656 541.179688 53.945312 531.105469 59.542969 C 515.761719 68.070312 497.589844 67.851562 482.5 58.929688 C 468.449219 50.667969 460.390625 36.960938 460.390625 21.316406 C 460.390625 9.542969 450.859375 0 439.074219 0 L 370.914062 0 C 359.140625 0 349.597656 9.542969 349.597656 21.316406 C 349.597656 36.960938 341.542969 50.675781 327.5 58.941406 C 312.390625 67.796875 294.238281 68.039062 278.90625 59.542969 C 268.863281 53.925781 256.195312 57.347656 250.285156 67.207031 C 250.285156 67.207031 216.28125 123.875 216.195312 124.011719 C 210.105469 134.164062 213.816406 147.90625 224.128906 153.613281 C 238.625 161.667969 247.277344 175.960938 247.277344 191.84375 C 247.277344 207.722656 238.625 222.015625 224.128906 230.070312 C 213.730469 235.847656 210.066406 249.464844 216.195312 259.671875 L 250.285156 316.480469 C 256.195312 326.316406 268.832031 329.71875 278.917969 324.140625 C 294.214844 315.644531 312.398438 315.863281 327.492188 324.734375 C 341.542969 333.007812 349.597656 346.714844 349.597656 362.367188 C 349.597656 374.140625 359.140625 383.683594 370.914062 383.683594 L 439.074219 383.683594 C 450.859375 383.683594 460.390625 374.140625 460.390625 362.367188 C 460.390625 346.726562 468.449219 333.007812 482.5 324.742188 C 497.570312 315.863281 515.722656 315.625 531.105469 324.140625 C 541.179688 329.75 553.835938 326.316406 559.726562 316.46875 C 559.726562 316.46875 593.742188 259.761719 593.804688 259.660156 Z M 405 277.105469 C 357.988281 277.105469 319.738281 238.855469 319.738281 191.84375 C 319.738281 144.828125 357.988281 106.578125 405 106.578125 C 452.023438 106.578125 490.261719 144.828125 490.261719 191.84375 C 490.261719 238.855469 452.023438 277.105469 405 277.105469 Z M 405 277.105469 "/><path style=" stroke:none;fill-rule:nonzero;fill:#000000;fill-opacity:1;" d="M 127.894531 490.261719 C 90.164062 490.261719 56.0625 473.847656 32.824219 447.632812 C 12.363281 470.226562 0 500.066406 0 532.894531 L 0 596.84375 C 0 608.566406 9.59375 618.15625 21.316406 618.15625 L 234.472656 618.15625 C 246.195312 618.15625 255.789062 608.566406 255.789062 596.84375 L 255.789062 532.894531 C 255.789062 500.066406 243.425781 470.226562 222.964844 447.632812 C 199.730469 473.847656 165.625 490.261719 127.894531 490.261719 Z M 127.894531 490.261719 "/><path style=" stroke:none;fill-rule:nonzero;fill:#000000;fill-opacity:1;" d="M 213.15625 362.367188 C 213.15625 363.765625 213.125 365.160156 213.054688 366.550781 C 212.988281 367.945312 212.882812 369.335938 212.746094 370.726562 C 212.609375 372.113281 212.441406 373.5 212.234375 374.878906 C 212.03125 376.257812 211.792969 377.632812 211.519531 379.003906 C 211.246094 380.371094 210.941406 381.730469 210.601562 383.085938 C 210.261719 384.4375 209.890625 385.785156 209.488281 387.117188 C 209.082031 388.453125 208.644531 389.777344 208.171875 391.09375 C 207.703125 392.40625 207.203125 393.707031 206.667969 394.996094 C 206.132812 396.285156 205.566406 397.5625 204.972656 398.824219 C 204.375 400.085938 203.746094 401.332031 203.089844 402.5625 C 202.433594 403.792969 201.746094 405.003906 201.027344 406.203125 C 200.308594 407.398438 199.5625 408.578125 198.789062 409.738281 C 198.011719 410.898438 197.210938 412.039062 196.378906 413.160156 C 195.546875 414.28125 194.6875 415.378906 193.804688 416.457031 C 192.917969 417.539062 192.007812 418.59375 191.070312 419.628906 C 190.132812 420.660156 189.171875 421.671875 188.183594 422.660156 C 187.199219 423.644531 186.1875 424.605469 185.152344 425.542969 C 184.121094 426.480469 183.0625 427.390625 181.984375 428.277344 C 180.90625 429.164062 179.808594 430.019531 178.6875 430.851562 C 177.566406 431.683594 176.425781 432.488281 175.265625 433.261719 C 174.105469 434.039062 172.925781 434.785156 171.730469 435.5 C 170.53125 436.21875 169.316406 436.90625 168.085938 437.5625 C 166.855469 438.222656 165.609375 438.847656 164.347656 439.445312 C 163.089844 440.042969 161.8125 440.605469 160.523438 441.140625 C 159.234375 441.675781 157.933594 442.175781 156.617188 442.648438 C 155.304688 443.117188 153.980469 443.554688 152.644531 443.960938 C 151.308594 444.363281 149.964844 444.738281 148.613281 445.078125 C 147.257812 445.414062 145.898438 445.722656 144.527344 445.992188 C 143.160156 446.265625 141.785156 446.503906 140.40625 446.707031 C 139.023438 446.914062 137.640625 447.085938 136.253906 447.222656 C 134.863281 447.359375 133.472656 447.460938 132.078125 447.527344 C 130.683594 447.597656 129.289062 447.632812 127.894531 447.632812 C 126.5 447.632812 125.105469 447.597656 123.710938 447.527344 C 122.316406 447.460938 120.925781 447.359375 119.539062 447.222656 C 118.148438 447.085938 116.765625 446.914062 115.382812 446.707031 C 114.003906 446.503906 112.628906 446.265625 111.261719 445.992188 C 109.890625 445.722656 108.53125 445.414062 107.175781 445.078125 C 105.824219 444.738281 104.480469 444.363281 103.144531 443.960938 C 101.808594 443.554688 100.484375 443.117188 99.171875 442.648438 C 97.855469 442.175781 96.554688 441.675781 95.265625 441.140625 C 93.976562 440.605469 92.703125 440.042969 91.441406 439.445312 C 90.179688 438.847656 88.933594 438.222656 87.703125 437.5625 C 86.472656 436.90625 85.257812 436.21875 84.0625 435.5 C 82.863281 434.785156 81.683594 434.039062 80.523438 433.261719 C 79.363281 432.488281 78.222656 431.683594 77.101562 430.851562 C 75.984375 430.019531 74.882812 429.164062 73.804688 428.277344 C 72.726562 427.390625 71.667969 426.480469 70.636719 425.542969 C 69.601562 424.605469 68.589844 423.644531 67.605469 422.660156 C 66.617188 421.671875 65.65625 420.660156 64.71875 419.628906 C 63.78125 418.59375 62.871094 417.539062 61.984375 416.457031 C 61.101562 415.378906 60.242188 414.28125 59.410156 413.160156 C 58.578125 412.039062 57.777344 410.898438 57 409.738281 C 56.226562 408.578125 55.480469 407.398438 54.761719 406.203125 C 54.042969 405.003906 53.355469 403.792969 52.699219 402.5625 C 52.042969 401.332031 51.414062 400.085938 50.816406 398.824219 C 50.222656 397.5625 49.65625 396.285156 49.121094 394.996094 C 48.585938 393.707031 48.085938 392.40625 47.617188 391.09375 C 47.144531 389.777344 46.707031 388.453125 46.304688 387.117188 C 45.898438 385.785156 45.527344 384.4375 45.1875 383.085938 C 44.847656 381.730469 44.542969 380.371094 44.269531 379.003906 C 43.996094 377.632812 43.757812 376.257812 43.554688 374.878906 C 43.351562 373.5 43.179688 372.113281 43.042969 370.726562 C 42.90625 369.335938 42.804688 367.945312 42.734375 366.550781 C 42.664062 365.160156 42.632812 363.765625 42.632812 362.367188 C 42.632812 360.972656 42.664062 359.578125 42.734375 358.183594 C 42.804688 356.792969 42.90625 355.398438 43.042969 354.011719 C 43.179688 352.621094 43.351562 351.238281 43.554688 349.859375 C 43.757812 348.476562 43.996094 347.101562 44.269531 345.734375 C 44.542969 344.367188 44.847656 343.003906 45.1875 341.652344 C 45.527344 340.296875 45.898438 338.953125 46.304688 337.617188 C 46.707031 336.28125 47.144531 334.957031 47.617188 333.644531 C 48.085938 332.332031 48.585938 331.027344 49.121094 329.738281 C 49.65625 328.449219 50.222656 327.175781 50.816406 325.914062 C 51.414062 324.652344 52.042969 323.40625 52.699219 322.175781 C 53.355469 320.945312 54.042969 319.730469 54.761719 318.535156 C 55.480469 317.335938 56.226562 316.160156 57 315 C 57.777344 313.839844 58.578125 312.699219 59.410156 311.578125 C 60.242188 310.457031 61.101562 309.355469 61.984375 308.277344 C 62.871094 307.199219 63.78125 306.144531 64.71875 305.109375 C 65.65625 304.074219 66.617188 303.066406 67.605469 302.078125 C 68.589844 301.089844 69.601562 300.128906 70.636719 299.191406 C 71.667969 298.253906 72.726562 297.34375 73.804688 296.460938 C 74.882812 295.574219 75.984375 294.714844 77.101562 293.882812 C 78.222656 293.054688 79.363281 292.25 80.523438 291.476562 C 81.683594 290.699219 82.863281 289.953125 84.0625 289.234375 C 85.257812 288.519531 86.472656 287.832031 87.703125 287.171875 C 88.933594 286.515625 90.179688 285.886719 91.441406 285.292969 C 92.703125 284.695312 93.976562 284.128906 95.265625 283.59375 C 96.554688 283.0625 97.855469 282.558594 99.171875 282.089844 C 100.484375 281.621094 101.808594 281.183594 103.144531 280.777344 C 104.480469 280.371094 105.824219 280 107.175781 279.660156 C 108.53125 279.320312 109.890625 279.015625 111.261719 278.742188 C 112.628906 278.472656 114.003906 278.234375 115.382812 278.027344 C 116.765625 277.824219 118.148438 277.652344 119.539062 277.515625 C 120.925781 277.378906 122.316406 277.277344 123.710938 277.207031 C 125.105469 277.140625 126.5 277.105469 127.894531 277.105469 C 129.289062 277.105469 130.683594 277.140625 132.078125 277.207031 C 133.472656 277.277344 134.863281 277.378906 136.253906 277.515625 C 137.640625 277.652344 139.023438 277.824219 140.40625 278.027344 C 141.785156 278.234375 143.160156 278.472656 144.527344 278.742188 C 145.898438 279.015625 147.257812 279.320312 148.613281 279.660156 C 149.964844 280 151.308594 280.371094 152.644531 280.777344 C 153.980469 281.183594 155.304688 281.621094 156.617188 282.089844 C 157.933594 282.558594 159.234375 283.0625 160.523438 283.59375 C 161.8125 284.128906 163.089844 284.695312 164.347656 285.292969 C 165.609375 285.886719 166.855469 286.515625 168.085938 287.171875 C 169.316406 287.832031 170.53125 288.519531 171.730469 289.234375 C 172.925781 289.953125 174.105469 290.699219 175.265625 291.476562 C 176.425781 292.25 177.566406 293.054688 178.6875 293.882812 C 179.808594 294.714844 180.90625 295.574219 181.984375 296.460938 C 183.0625 297.34375 184.121094 298.253906 185.152344 299.191406 C 186.1875 300.128906 187.199219 301.089844 188.183594 302.078125 C 189.171875 303.066406 190.132812 304.074219 191.070312 305.109375 C 192.007812 306.144531 192.917969 307.199219 193.804688 308.277344 C 194.6875 309.355469 195.546875 310.457031 196.378906 311.578125 C 197.210938 312.699219 198.011719 313.839844 198.789062 315 C 199.5625 316.160156 200.308594 317.335938 201.027344 318.535156 C 201.746094 319.730469 202.433594 320.945312 203.089844 322.175781 C 203.746094 323.40625 204.375 324.652344 204.972656 325.914062 C 205.566406 327.175781 206.132812 328.449219 206.667969 329.738281 C 207.203125 331.027344 207.703125 332.332031 208.171875 333.644531 C 208.644531 334.957031 209.082031 336.28125 209.488281 337.617188 C 209.890625 338.953125 210.261719 340.296875 210.601562 341.652344 C 210.941406 343.003906 211.246094 344.367188 211.519531 345.734375 C 211.792969 347.101562 212.03125 348.476562 212.234375 349.859375 C 212.441406 351.238281 212.609375 352.621094 212.746094 354.011719 C 212.882812 355.398438 212.988281 356.792969 213.054688 358.183594 C 213.125 359.578125 213.15625 360.972656 213.15625 362.367188 Z M 213.15625 362.367188 "/><path style=" stroke:none;fill-rule:nonzero;fill:#000000;fill-opacity:1;" d="M 777.175781 447.632812 C 753.9375 473.847656 719.835938 490.261719 682.105469 490.261719 C 644.375 490.261719 610.269531 473.847656 587.035156 447.632812 C 566.574219 470.226562 554.210938 500.066406 554.210938 532.894531 L 554.210938 596.84375 C 554.210938 608.566406 563.804688 618.15625 575.527344 618.15625 L 788.683594 618.15625 C 800.40625 618.15625 810 608.566406 810 596.84375 L 810 532.894531 C 810 500.066406 797.636719 470.226562 777.175781 447.632812 Z M 777.175781 447.632812 "/><path style=" stroke:none;fill-rule:nonzero;fill:#000000;fill-opacity:1;" d="M 767.367188 362.367188 C 767.367188 363.765625 767.335938 365.160156 767.265625 366.550781 C 767.195312 367.945312 767.09375 369.335938 766.957031 370.726562 C 766.820312 372.113281 766.648438 373.5 766.445312 374.878906 C 766.242188 376.257812 766.003906 377.632812 765.730469 379.003906 C 765.457031 380.371094 765.152344 381.730469 764.8125 383.085938 C 764.472656 384.4375 764.101562 385.785156 763.695312 387.117188 C 763.292969 388.453125 762.855469 389.777344 762.382812 391.09375 C 761.914062 392.40625 761.410156 393.707031 760.878906 394.996094 C 760.34375 396.285156 759.777344 397.5625 759.183594 398.824219 C 758.585938 400.085938 757.957031 401.332031 757.300781 402.5625 C 756.644531 403.792969 755.957031 405.003906 755.238281 406.203125 C 754.519531 407.398438 753.773438 408.578125 753 409.738281 C 752.222656 410.898438 751.421875 412.039062 750.589844 413.160156 C 749.757812 414.28125 748.898438 415.378906 748.015625 416.457031 C 747.128906 417.539062 746.21875 418.59375 745.28125 419.628906 C 744.34375 420.660156 743.382812 421.671875 742.394531 422.660156 C 741.410156 423.644531 740.398438 424.605469 739.363281 425.542969 C 738.332031 426.480469 737.273438 427.390625 736.195312 428.277344 C 735.117188 429.164062 734.015625 430.019531 732.894531 430.851562 C 731.777344 431.683594 730.636719 432.488281 729.476562 433.261719 C 728.316406 434.039062 727.136719 434.785156 725.9375 435.5 C 724.742188 436.21875 723.527344 436.90625 722.296875 437.5625 C 721.066406 438.222656 719.820312 438.847656 718.558594 439.445312 C 717.296875 440.042969 716.023438 440.605469 714.734375 441.140625 C 713.445312 441.675781 712.144531 442.175781 710.828125 442.648438 C 709.515625 443.117188 708.191406 443.554688 706.855469 443.960938 C 705.519531 444.363281 704.175781 444.738281 702.824219 445.078125 C 701.46875 445.414062 700.109375 445.722656 698.738281 445.992188 C 697.371094 446.265625 695.996094 446.503906 694.617188 446.707031 C 693.234375 446.914062 691.851562 447.085938 690.460938 447.222656 C 689.074219 447.359375 687.683594 447.460938 686.289062 447.527344 C 684.894531 447.597656 683.5 447.632812 682.105469 447.632812 C 680.710938 447.632812 679.316406 447.597656 677.921875 447.527344 C 676.527344 447.460938 675.136719 447.359375 673.746094 447.222656 C 672.359375 447.085938 670.976562 446.914062 669.59375 446.707031 C 668.214844 446.503906 666.839844 446.265625 665.472656 445.992188 C 664.101562 445.722656 662.742188 445.414062 661.386719 445.078125 C 660.035156 444.738281 658.691406 444.363281 657.355469 443.960938 C 656.019531 443.554688 654.695312 443.117188 653.378906 442.648438 C 652.066406 442.175781 650.765625 441.675781 649.476562 441.140625 C 648.1875 440.605469 646.910156 440.042969 645.652344 439.445312 C 644.390625 438.847656 643.144531 438.222656 641.914062 437.5625 C 640.683594 436.90625 639.46875 436.21875 638.269531 435.5 C 637.074219 434.785156 635.894531 434.039062 634.734375 433.261719 C 633.574219 432.488281 632.433594 431.683594 631.3125 430.851562 C 630.191406 430.019531 629.09375 429.164062 628.015625 428.277344 C 626.9375 427.390625 625.878906 426.480469 624.847656 425.542969 C 623.8125 424.605469 622.800781 423.644531 621.816406 422.660156 C 620.828125 421.671875 619.867188 420.660156 618.929688 419.628906 C 617.992188 418.59375 617.082031 417.539062 616.195312 416.457031 C 615.3125 415.378906 614.453125 414.28125 613.621094 413.160156 C 612.789062 412.039062 611.988281 410.898438 611.210938 409.738281 C 610.4375 408.578125 609.691406 407.398438 608.972656 406.203125 C 608.253906 405.003906 607.566406 403.792969 606.910156 402.5625 C 606.25 401.332031 605.625 400.085938 605.027344 398.824219 C 604.429688 397.5625 603.867188 396.285156 603.332031 394.996094 C 602.796875 393.707031 602.296875 392.40625 601.824219 391.09375 C 601.355469 389.777344 600.917969 388.453125 600.511719 387.117188 C 600.109375 385.785156 599.734375 384.4375 599.398438 383.085938 C 599.058594 381.730469 598.753906 380.371094 598.480469 379.003906 C 598.207031 377.632812 597.96875 376.257812 597.765625 374.878906 C 597.558594 373.5 597.390625 372.113281 597.253906 370.726562 C 597.117188 369.335938 597.011719 367.945312 596.945312 366.550781 C 596.875 365.160156 596.84375 363.765625 596.84375 362.367188 C 596.84375 360.972656 596.875 359.578125 596.945312 358.183594 C 597.011719 356.792969 597.117188 355.398438 597.253906 354.011719 C 597.390625 352.621094 597.558594 351.238281 597.765625 349.859375 C 597.96875 348.476562 598.207031 347.101562 598.480469 345.734375 C 598.753906 344.367188 599.058594 343.003906 599.398438 341.652344 C 599.734375 340.296875 600.109375 338.953125 600.511719 337.617188 C 600.917969 336.28125 601.355469 334.957031 601.824219 333.644531 C 602.296875 332.332031 602.796875 331.027344 603.332031 329.738281 C 603.867188 328.449219 604.429688 327.175781 605.027344 325.914062 C 605.625 324.652344 606.253906 323.40625 606.910156 322.175781 C 607.566406 320.945312 608.253906 319.730469 608.972656 318.535156 C 609.691406 317.335938 610.4375 316.160156 611.210938 315 C 611.988281 313.839844 612.789062 312.699219 613.621094 311.578125 C 614.453125 310.457031 615.3125 309.355469 616.195312 308.277344 C 617.082031 307.199219 617.992188 306.144531 618.929688 305.109375 C 619.867188 304.074219 620.828125 303.066406 621.816406 302.078125 C 622.800781 301.089844 623.8125 300.128906 624.847656 299.191406 C 625.878906 298.253906 626.9375 297.34375 628.015625 296.460938 C 629.09375 295.574219 630.191406 294.714844 631.3125 293.882812 C 632.433594 293.054688 633.574219 292.25 634.734375 291.476562 C 635.894531 290.699219 637.074219 289.953125 638.269531 289.234375 C 639.46875 288.519531 640.683594 287.832031 641.914062 287.171875 C 643.144531 286.515625 644.390625 285.886719 645.652344 285.292969 C 646.910156 284.695312 648.1875 284.128906 649.476562 283.59375 C 650.765625 283.0625 652.066406 282.558594 653.378906 282.089844 C 654.695312 281.621094 656.019531 281.183594 657.355469 280.777344 C 658.691406 280.371094 660.035156 280 661.386719 279.660156 C 662.742188 279.320312 664.101562 279.015625 665.472656 278.742188 C 666.839844 278.472656 668.214844 278.234375 669.59375 278.027344 C 670.976562 277.824219 672.359375 277.652344 673.746094 277.515625 C 675.136719 277.378906 676.527344 277.277344 677.921875 277.207031 C 679.316406 277.140625 680.710938 277.105469 682.105469 277.105469 C 683.5 277.105469 684.894531 277.140625 686.289062 277.207031 C 687.683594 277.277344 689.074219 277.378906 690.460938 277.515625 C 691.851562 277.652344 693.234375 277.824219 694.617188 278.027344 C 695.996094 278.234375 697.371094 278.472656 698.738281 278.742188 C 700.109375 279.015625 701.46875 279.320312 702.824219 279.660156 C 704.175781 280 705.519531 280.371094 706.855469 280.777344 C 708.191406 281.183594 709.515625 281.621094 710.828125 282.089844 C 712.144531 282.558594 713.445312 283.0625 714.734375 283.59375 C 716.023438 284.128906 717.296875 284.695312 718.558594 285.292969 C 719.820312 285.886719 721.066406 286.515625 722.296875 287.171875 C 723.527344 287.832031 724.742188 288.519531 725.9375 289.234375 C 727.136719 289.953125 728.316406 290.699219 729.476562 291.476562 C 730.636719 292.25 731.777344 293.054688 732.894531 293.882812 C 734.015625 294.714844 735.117188 295.574219 736.195312 296.460938 C 737.273438 297.34375 738.332031 298.253906 739.363281 299.191406 C 740.398438 300.128906 741.410156 301.089844 742.394531 302.078125 C 743.382812 303.066406 744.34375 304.074219 745.28125 305.109375 C 746.21875 306.144531 747.128906 307.199219 748.015625 308.277344 C 748.898438 309.355469 749.757812 310.457031 750.589844 311.578125 C 751.421875 312.699219 752.222656 313.839844 753 315 C 753.773438 316.160156 754.519531 317.335938 755.238281 318.535156 C 755.957031 319.730469 756.644531 320.945312 757.300781 322.175781 C 757.957031 323.40625 758.585938 324.652344 759.183594 325.914062 C 759.777344 327.175781 760.34375 328.449219 760.878906 329.738281 C 761.410156 331.027344 761.914062 332.332031 762.382812 333.644531 C 762.855469 334.957031 763.292969 336.28125 763.695312 337.617188 C 764.101562 338.953125 764.472656 340.296875 764.8125 341.652344 C 765.152344 343.003906 765.457031 344.367188 765.730469 345.734375 C 766.003906 347.101562 766.242188 348.476562 766.445312 349.859375 C 766.648438 351.238281 766.820312 352.621094 766.957031 354.011719 C 767.09375 355.398438 767.195312 356.792969 767.265625 358.183594 C 767.335938 359.578125 767.367188 360.972656 767.367188 362.367188 Z M 767.367188 362.367188 "/><path style=" stroke:none;fill-rule:nonzero;fill:#000000;fill-opacity:1;" d="M 405 682.105469 C 367.269531 682.105469 333.164062 665.691406 309.929688 639.472656 C 289.46875 662.070312 277.105469 691.910156 277.105469 724.738281 L 277.105469 788.683594 C 277.105469 800.40625 286.699219 810 298.421875 810 L 511.578125 810 C 523.300781 810 532.894531 800.40625 532.894531 788.683594 L 532.894531 724.738281 C 532.894531 691.910156 520.53125 662.070312 500.070312 639.472656 C 476.835938 665.691406 442.730469 682.105469 405 682.105469 Z M 405 682.105469 "/><path style=" stroke:none;fill-rule:nonzero;fill:#000000;fill-opacity:1;" d="M 490.261719 554.210938 C 490.261719 555.605469 490.230469 557 490.160156 558.394531 C 490.09375 559.789062 489.988281 561.179688 489.851562 562.566406 C 489.714844 563.957031 489.546875 565.339844 489.339844 566.722656 C 489.136719 568.101562 488.898438 569.476562 488.625 570.84375 C 488.351562 572.214844 488.046875 573.574219 487.707031 574.929688 C 487.367188 576.28125 486.996094 577.625 486.589844 578.960938 C 486.1875 580.296875 485.75 581.621094 485.277344 582.933594 C 484.808594 584.25 484.308594 585.550781 483.773438 586.839844 C 483.238281 588.128906 482.671875 589.402344 482.078125 590.664062 C 481.480469 591.925781 480.851562 593.171875 480.195312 594.402344 C 479.539062 595.632812 478.851562 596.847656 478.132812 598.042969 C 477.414062 599.242188 476.667969 600.417969 475.894531 601.582031 C 475.117188 602.742188 474.316406 603.878906 473.484375 605 C 472.652344 606.121094 471.792969 607.222656 470.910156 608.300781 C 470.023438 609.378906 469.113281 610.4375 468.175781 611.46875 C 467.238281 612.503906 466.277344 613.515625 465.289062 614.5 C 464.304688 615.488281 463.292969 616.449219 462.257812 617.386719 C 461.226562 618.324219 460.167969 619.234375 459.089844 620.121094 C 458.011719 621.003906 456.910156 621.863281 455.792969 622.695312 C 454.671875 623.527344 453.53125 624.328125 452.371094 625.105469 C 451.210938 625.878906 450.03125 626.625 448.835938 627.34375 C 447.636719 628.058594 446.421875 628.75 445.191406 629.40625 C 443.960938 630.0625 442.714844 630.691406 441.453125 631.289062 C 440.191406 631.882812 438.917969 632.449219 437.628906 632.984375 C 436.339844 633.515625 435.039062 634.019531 433.722656 634.488281 C 432.410156 634.960938 431.085938 635.398438 429.75 635.800781 C 428.414062 636.207031 427.070312 636.578125 425.71875 636.917969 C 424.363281 637.257812 423.003906 637.5625 421.632812 637.835938 C 420.265625 638.109375 418.890625 638.347656 417.511719 638.550781 C 416.128906 638.753906 414.746094 638.925781 413.355469 639.0625 C 411.96875 639.199219 410.578125 639.300781 409.183594 639.371094 C 407.789062 639.4375 406.394531 639.472656 405 639.472656 C 403.605469 639.472656 402.210938 639.4375 400.816406 639.371094 C 399.421875 639.300781 398.03125 639.199219 396.644531 639.0625 C 395.253906 638.925781 393.871094 638.753906 392.488281 638.550781 C 391.109375 638.347656 389.734375 638.109375 388.367188 637.835938 C 386.996094 637.5625 385.636719 637.257812 384.28125 636.917969 C 382.929688 636.578125 381.585938 636.207031 380.25 635.800781 C 378.914062 635.398438 377.589844 634.960938 376.277344 634.488281 C 374.960938 634.019531 373.660156 633.515625 372.371094 632.984375 C 371.082031 632.449219 369.808594 631.882812 368.546875 631.289062 C 367.285156 630.691406 366.039062 630.0625 364.808594 629.40625 C 363.578125 628.75 362.363281 628.058594 361.164062 627.34375 C 359.96875 626.625 358.789062 625.878906 357.628906 625.105469 C 356.46875 624.328125 355.328125 623.527344 354.207031 622.695312 C 353.089844 621.863281 351.988281 621.003906 350.910156 620.121094 C 349.832031 619.234375 348.773438 618.324219 347.742188 617.386719 C 346.707031 616.449219 345.695312 615.488281 344.710938 614.5 C 343.722656 613.515625 342.761719 612.503906 341.824219 611.46875 C 340.886719 610.4375 339.976562 609.378906 339.089844 608.300781 C 338.207031 607.222656 337.347656 606.121094 336.515625 605 C 335.683594 603.878906 334.882812 602.742188 334.105469 601.582031 C 333.332031 600.417969 332.585938 599.242188 331.867188 598.042969 C 331.148438 596.847656 330.460938 595.632812 329.804688 594.402344 C 329.148438 593.171875 328.519531 591.925781 327.921875 590.664062 C 327.328125 589.402344 326.761719 588.128906 326.226562 586.839844 C 325.691406 585.550781 325.191406 584.25 324.722656 582.933594 C 324.25 581.621094 323.8125 580.296875 323.40625 578.960938 C 323.003906 577.625 322.632812 576.28125 322.292969 574.929688 C 321.953125 573.574219 321.648438 572.214844 321.375 570.84375 C 321.101562 569.476562 320.863281 568.101562 320.660156 566.722656 C 320.453125 565.339844 320.285156 563.957031 320.148438 562.566406 C 320.011719 561.179688 319.90625 559.789062 319.839844 558.394531 C 319.769531 557 319.738281 555.605469 319.738281 554.210938 C 319.738281 552.816406 319.769531 551.421875 319.839844 550.027344 C 319.90625 548.632812 320.011719 547.242188 320.148438 545.851562 C 320.285156 544.464844 320.453125 543.078125 320.660156 541.699219 C 320.863281 540.320312 321.101562 538.945312 321.375 537.578125 C 321.648438 536.207031 321.953125 534.847656 322.292969 533.492188 C 322.632812 532.140625 323.003906 530.796875 323.40625 529.460938 C 323.8125 528.125 324.25 526.800781 324.722656 525.484375 C 325.191406 524.171875 325.691406 522.871094 326.226562 521.582031 C 326.761719 520.292969 327.328125 519.015625 327.921875 517.753906 C 328.519531 516.496094 329.148438 515.25 329.804688 514.019531 C 330.460938 512.785156 331.148438 511.574219 331.867188 510.375 C 332.585938 509.179688 333.332031 508 334.105469 506.839844 C 334.882812 505.679688 335.683594 504.539062 336.515625 503.417969 C 337.347656 502.296875 338.207031 501.199219 339.089844 500.121094 C 339.976562 499.042969 340.886719 497.984375 341.824219 496.953125 C 342.761719 495.917969 343.722656 494.90625 344.710938 493.921875 C 345.695312 492.933594 346.707031 491.972656 347.742188 491.035156 C 348.773438 490.097656 349.832031 489.1875 350.910156 488.300781 C 351.988281 487.414062 353.089844 486.558594 354.207031 485.726562 C 355.328125 484.894531 356.46875 484.09375 357.628906 483.316406 C 358.789062 482.542969 359.96875 481.796875 361.164062 481.078125 C 362.363281 480.359375 363.578125 479.671875 364.808594 479.015625 C 366.039062 478.355469 367.285156 477.730469 368.546875 477.132812 C 369.808594 476.535156 371.082031 475.972656 372.371094 475.4375 C 373.660156 474.902344 374.960938 474.402344 376.277344 473.929688 C 377.589844 473.460938 378.914062 473.023438 380.25 472.617188 C 381.585938 472.214844 382.929688 471.839844 384.28125 471.503906 C 385.636719 471.164062 386.996094 470.859375 388.367188 470.585938 C 389.734375 470.3125 391.109375 470.074219 392.488281 469.871094 C 393.871094 469.664062 395.253906 469.496094 396.644531 469.359375 C 398.03125 469.222656 399.421875 469.117188 400.816406 469.050781 C 402.210938 468.980469 403.605469 468.949219 405 468.949219 C 406.394531 468.949219 407.789062 468.980469 409.183594 469.050781 C 410.578125 469.117188 411.96875 469.222656 413.355469 469.359375 C 414.746094 469.496094 416.128906 469.664062 417.511719 469.871094 C 418.890625 470.074219 420.265625 470.3125 421.632812 470.585938 C 423.003906 470.859375 424.363281 471.164062 425.71875 471.503906 C 427.070312 471.839844 428.414062 472.214844 429.75 472.617188 C 431.085938 473.023438 432.410156 473.460938 433.722656 473.929688 C 435.039062 474.402344 436.339844 474.902344 437.628906 475.4375 C 438.917969 475.972656 440.191406 476.535156 441.453125 477.132812 C 442.714844 477.730469 443.960938 478.355469 445.191406 479.015625 C 446.421875 479.671875 447.636719 480.359375 448.835938 481.078125 C 450.03125 481.796875 451.210938 482.542969 452.371094 483.316406 C 453.53125 484.09375 454.671875 484.894531 455.792969 485.726562 C 456.910156 486.558594 458.011719 487.414062 459.089844 488.300781 C 460.167969 489.1875 461.226562 490.097656 462.257812 491.035156 C 463.292969 491.972656 464.304688 492.933594 465.289062 493.921875 C 466.277344 494.90625 467.238281 495.917969 468.175781 496.953125 C 469.113281 497.984375 470.023438 499.042969 470.910156 500.121094 C 471.792969 501.199219 472.652344 502.296875 473.484375 503.417969 C 474.316406 504.539062 475.117188 505.679688 475.894531 506.839844 C 476.667969 508 477.414062 509.179688 478.132812 510.375 C 478.851562 511.574219 479.539062 512.785156 480.195312 514.019531 C 480.851562 515.25 481.480469 516.496094 482.078125 517.753906 C 482.671875 519.015625 483.238281 520.292969 483.773438 521.582031 C 484.308594 522.871094 484.808594 524.171875 485.277344 525.484375 C 485.75 526.800781 486.1875 528.125 486.589844 529.460938 C 486.996094 530.796875 487.367188 532.140625 487.707031 533.492188 C 488.046875 534.847656 488.351562 536.207031 488.625 537.578125 C 488.898438 538.945312 489.136719 540.320312 489.339844 541.699219 C 489.546875 543.078125 489.714844 544.464844 489.851562 545.851562 C 489.988281 547.242188 490.09375 548.632812 490.160156 550.027344 C 490.230469 551.421875 490.261719 552.816406 490.261719 554.210938 Z M 490.261719 554.210938 "/></g></svg>