<svg xmlns="http://www.w3.org/2000/svg" xmlns:xlink="http://www.w3.org/1999/xlink" width="1080" zoomAndPan="magnify" viewBox="0 0 810 809.999993" height="1080" preserveAspectRatio="xMidYMid meet" version="1.2"><defs><clipPath id="57c2308a51"><path d="M 3 228 L 634 228 L 634 729.074219 L 3 729.074219 Z M 3 228 "/></clipPath></defs><g id="b9361d6ce0"><path style=" stroke:none;fill-rule:nonzero;fill:#000000;fill-opacity:1;" d="M 454.195312 296.066406 C 485.605469 296.066406 511.074219 271.441406 511.921875 240.027344 C 511.921875 208.613281 487.304688 183.144531 455.894531 182.292969 C 424.484375 182.292969 399.015625 206.917969 398.167969 238.332031 C 398.167969 270.59375 422.785156 296.066406 454.195312 296.066406 Z M 454.195312 296.066406 "/><path style=" stroke:none;fill-rule:nonzero;fill:#000000;fill-opacity:1;" d="M 148.578125 347.855469 C 179.988281 347.855469 205.457031 323.234375 206.308594 291.820312 C 206.308594 260.40625 181.6875 234.933594 150.277344 234.085938 C 118.867188 234.085938 93.398438 258.707031 92.550781 290.121094 C 91.699219 322.386719 117.167969 347.855469 148.578125 347.855469 Z M 148.578125 347.855469 "/><path style=" stroke:none;fill-rule:nonzero;fill:#000000;fill-opacity:1;" d="M 666.515625 161.066406 C 669.910156 164.464844 671.609375 169.558594 670.757812 173.804688 L 663.117188 204.371094 C 660.570312 216.253906 672.457031 224.746094 682.644531 218.804688 L 709.808594 202.671875 C 714.054688 200.125 719.148438 200.125 723.390625 202.671875 L 750.558594 218.804688 C 760.746094 224.746094 773.480469 216.253906 770.082031 204.371094 L 763.292969 173.804688 C 762.441406 168.710938 764.140625 163.617188 767.535156 161.066406 L 791.308594 140.691406 C 800.644531 133.050781 795.550781 118.617188 783.667969 117.765625 L 752.257812 115.21875 C 747.164062 115.21875 742.917969 111.824219 741.21875 106.730469 L 729.335938 77.863281 C 725.089844 66.824219 708.960938 66.824219 704.714844 77.863281 L 692.832031 106.730469 C 691.132812 110.976562 686.886719 114.371094 681.792969 115.21875 L 650.382812 117.765625 C 638.5 118.617188 634.253906 133.050781 642.742188 140.691406 Z M 666.515625 161.066406 "/><path style=" stroke:none;fill-rule:nonzero;fill:#000000;fill-opacity:1;" d="M 806.585938 593.3125 L 729.335938 485.484375 C 725.089844 479.542969 716.601562 476.996094 709.808594 480.390625 L 656.328125 502.464844 C 652.929688 504.164062 650.382812 505.863281 648.6875 509.257812 L 596.902344 595.011719 C 594.355469 599.257812 590.109375 601.804688 585.015625 602.652344 L 478.050781 611.992188 C 474.65625 611.992188 470.410156 613.691406 467.863281 616.238281 L 427.113281 656.992188 C 424.566406 659.539062 420.324219 661.238281 416.925781 661.238281 L 321.847656 668.878906 C 316.753906 668.878906 311.660156 672.273438 309.113281 677.367188 L 293.832031 704.539062 C 287.890625 715.574219 295.53125 728.3125 307.414062 728.3125 L 793.855469 728.3125 C 802.34375 728.3125 809.984375 721.519531 809.984375 712.179688 L 809.984375 602.652344 C 809.984375 599.257812 809.132812 595.859375 806.585938 593.3125 Z M 806.585938 593.3125 "/><g clip-rule="nonzero" clip-path="url(#57c2308a51)"><path style=" stroke:none;fill-rule:nonzero;fill:#000000;fill-opacity:1;" d="M 303.933594 455.683594 C 307.332031 453.988281 310.726562 452.289062 313.273438 449.742188 C 314.121094 449.742188 314.121094 449.742188 314.96875 449.742188 C 323.460938 449.742188 331.101562 445.496094 336.195312 438.703125 L 351.476562 416.628906 C 364.207031 398.800781 381.1875 384.367188 400.710938 375.027344 L 400.710938 465.875 L 389.675781 541.4375 L 349.777344 637.378906 L 412.597656 633.132812 L 418.539062 627.191406 L 445.707031 560.964844 C 446.554688 558.417969 447.402344 556.71875 447.402344 554.171875 L 456.742188 492.191406 L 518.714844 517.664062 L 511.921875 580.492188 L 572.199219 575.398438 L 579.835938 501.53125 C 581.535156 488.796875 573.894531 476.0625 562.011719 470.96875 L 511.074219 450.589844 L 511.074219 358.046875 L 513.621094 357.195312 C 549.277344 347.855469 581.535156 327.480469 604.457031 298.613281 L 627.378906 270.59375 C 636.714844 259.558594 635.019531 242.574219 623.132812 234.085938 C 612.097656 224.746094 595.117188 226.445312 586.628906 238.332031 L 563.707031 266.347656 C 547.578125 285.875 525.507812 300.3125 500.886719 307.101562 L 494.09375 308.800781 C 483.910156 311.347656 474.570312 312.195312 464.382812 312.195312 L 450.800781 312.195312 C 433.820312 312.195312 415.992188 314.746094 399.863281 319.839844 C 362.511719 330.875 330.25 355.5 308.179688 387.761719 L 296.292969 404.742188 C 292.898438 404.742188 289.503906 404.742188 286.105469 406.441406 C 265.734375 414.082031 242.8125 408.988281 227.53125 393.703125 L 223.285156 389.460938 C 207.15625 373.328125 185.933594 364.835938 163.011719 364.835938 L 131.601562 364.835938 C 101.039062 364.835938 71.328125 377.574219 50.953125 398.800781 C 30.578125 420.023438 15.296875 446.34375 5.109375 476.0625 C 0.015625 489.644531 7.65625 504.078125 21.238281 509.175781 C 23.785156 510.023438 27.183594 510.871094 29.730469 510.871094 C 40.765625 510.871094 50.953125 504.078125 54.347656 493.042969 C 61.988281 470.96875 73.023438 451.4375 88.304688 435.308594 C 89.15625 434.457031 90.851562 433.609375 91.703125 431.910156 L 91.703125 545.683594 L 83.210938 603.417969 L 33.972656 684.925781 C 25.484375 698.507812 29.730469 716.339844 44.160156 724.828125 C 49.253906 727.375 54.347656 729.074219 59.441406 729.074219 C 69.628906 729.074219 78.96875 723.980469 84.0625 714.640625 L 136.695312 628.039062 C 138.390625 624.644531 140.089844 621.246094 140.9375 617 L 148.578125 562.664062 L 185.933594 605.964844 L 200.363281 703.605469 C 202.0625 718.039062 214.796875 728.226562 229.226562 728.226562 C 230.925781 728.226562 231.773438 728.226562 233.472656 728.226562 C 249.601562 725.679688 260.640625 711.246094 258.09375 695.113281 L 242.8125 588.984375 C 241.960938 583.890625 239.414062 578.796875 236.019531 574.550781 L 200.363281 532.945312 L 204.609375 441.25 C 232.625 462.476562 269.976562 468.421875 303.933594 455.683594 Z M 303.933594 455.683594 "/></g></g></svg>