<svg xmlns="http://www.w3.org/2000/svg" xmlns:xlink="http://www.w3.org/1999/xlink" width="1080" zoomAndPan="magnify" viewBox="0 0 810 809.999993" height="1080" preserveAspectRatio="xMidYMid meet" version="1.2"><defs><clipPath id="6cdafdb7bc"><path d="M 288 653 L 524 653 L 524 796.914062 L 288 796.914062 Z M 288 653 "/></clipPath><clipPath id="f7d3bb111d"><path d="M 39 13.164062 L 249 13.164062 L 249 223 L 39 223 Z M 39 13.164062 "/></clipPath></defs><g id="cfd9b52aff"><path style=" stroke:none;fill-rule:nonzero;fill:#000000;fill-opacity:1;" d="M 470.957031 587.914062 C 470.957031 588.980469 470.933594 590.050781 470.878906 591.117188 C 470.828125 592.183594 470.75 593.25 470.644531 594.3125 C 470.539062 595.378906 470.410156 596.4375 470.25 597.496094 C 470.09375 598.554688 469.914062 599.605469 469.703125 600.652344 C 469.496094 601.703125 469.261719 602.746094 469 603.78125 C 468.742188 604.820312 468.457031 605.847656 468.148438 606.871094 C 467.835938 607.894531 467.5 608.910156 467.140625 609.914062 C 466.78125 610.921875 466.398438 611.917969 465.988281 612.90625 C 465.578125 613.894531 465.144531 614.871094 464.6875 615.835938 C 464.230469 616.804688 463.75 617.757812 463.246094 618.699219 C 462.742188 619.644531 462.21875 620.574219 461.667969 621.488281 C 461.117188 622.40625 460.546875 623.308594 459.953125 624.199219 C 459.359375 625.085938 458.742188 625.960938 458.105469 626.820312 C 457.46875 627.675781 456.8125 628.519531 456.136719 629.347656 C 455.457031 630.171875 454.757812 630.980469 454.042969 631.773438 C 453.324219 632.566406 452.585938 633.339844 451.832031 634.09375 C 451.074219 634.851562 450.300781 635.589844 449.507812 636.304688 C 448.71875 637.023438 447.910156 637.722656 447.082031 638.398438 C 446.257812 639.078125 445.414062 639.734375 444.554688 640.371094 C 443.695312 641.007812 442.824219 641.625 441.933594 642.21875 C 441.046875 642.8125 440.144531 643.382812 439.226562 643.933594 C 438.308594 644.480469 437.378906 645.007812 436.4375 645.511719 C 435.496094 646.015625 434.539062 646.496094 433.574219 646.953125 C 432.609375 647.410156 431.632812 647.84375 430.644531 648.253906 C 429.65625 648.664062 428.660156 649.046875 427.652344 649.40625 C 426.648438 649.765625 425.632812 650.101562 424.609375 650.414062 C 423.585938 650.722656 422.558594 651.007812 421.519531 651.265625 C 420.484375 651.527344 419.441406 651.761719 418.394531 651.96875 C 417.34375 652.179688 416.292969 652.359375 415.234375 652.519531 C 414.179688 652.675781 413.117188 652.804688 412.054688 652.910156 C 410.992188 653.015625 409.925781 653.09375 408.859375 653.144531 C 407.789062 653.199219 406.722656 653.226562 405.652344 653.226562 C 404.585938 653.226562 403.515625 653.199219 402.449219 653.144531 C 401.382812 653.09375 400.316406 653.015625 399.253906 652.910156 C 398.1875 652.804688 397.128906 652.675781 396.070312 652.519531 C 395.011719 652.359375 393.960938 652.179688 392.914062 651.96875 C 391.863281 651.761719 390.820312 651.527344 389.785156 651.265625 C 388.75 651.007812 387.71875 650.722656 386.695312 650.414062 C 385.671875 650.101562 384.660156 649.765625 383.652344 649.40625 C 382.644531 649.046875 381.648438 648.664062 380.660156 648.253906 C 379.675781 647.84375 378.699219 647.410156 377.730469 646.953125 C 376.765625 646.496094 375.8125 646.015625 374.867188 645.511719 C 373.925781 645.007812 372.996094 644.480469 372.078125 643.933594 C 371.164062 643.382812 370.261719 642.8125 369.371094 642.21875 C 368.484375 641.625 367.609375 641.007812 366.75 640.371094 C 365.890625 639.734375 365.050781 639.078125 364.222656 638.398438 C 363.398438 637.722656 362.589844 637.023438 361.796875 636.304688 C 361.003906 635.589844 360.230469 634.851562 359.476562 634.09375 C 358.71875 633.339844 357.984375 632.566406 357.265625 631.773438 C 356.546875 630.980469 355.847656 630.171875 355.171875 629.347656 C 354.492188 628.519531 353.835938 627.675781 353.199219 626.820312 C 352.5625 625.960938 351.945312 625.085938 351.351562 624.199219 C 350.757812 623.308594 350.1875 622.40625 349.636719 621.488281 C 349.089844 620.574219 348.5625 619.644531 348.058594 618.699219 C 347.554688 617.757812 347.074219 616.804688 346.617188 615.835938 C 346.160156 614.871094 345.726562 613.894531 345.320312 612.90625 C 344.910156 611.917969 344.523438 610.921875 344.164062 609.914062 C 343.804688 608.910156 343.46875 607.894531 343.160156 606.871094 C 342.847656 605.847656 342.5625 604.820312 342.304688 603.78125 C 342.042969 602.746094 341.8125 601.703125 341.601562 600.652344 C 341.394531 599.605469 341.210938 598.554688 341.054688 597.496094 C 340.898438 596.4375 340.765625 595.378906 340.660156 594.3125 C 340.558594 593.25 340.476562 592.183594 340.425781 591.117188 C 340.375 590.050781 340.347656 588.980469 340.347656 587.914062 C 340.347656 586.84375 340.375 585.773438 340.425781 584.707031 C 340.476562 583.640625 340.558594 582.574219 340.660156 581.511719 C 340.765625 580.445312 340.898438 579.386719 341.054688 578.328125 C 341.210938 577.273438 341.394531 576.21875 341.601562 575.171875 C 341.8125 574.121094 342.042969 573.078125 342.304688 572.042969 C 342.5625 571.007812 342.847656 569.976562 343.160156 568.953125 C 343.46875 567.929688 343.804688 566.914062 344.164062 565.910156 C 344.523438 564.902344 344.910156 563.90625 345.320312 562.917969 C 345.726562 561.929688 346.160156 560.953125 346.617188 559.988281 C 347.074219 559.023438 347.554688 558.066406 348.058594 557.125 C 348.5625 556.183594 349.089844 555.25 349.636719 554.335938 C 350.1875 553.417969 350.757812 552.515625 351.351562 551.625 C 351.945312 550.738281 352.5625 549.863281 353.199219 549.003906 C 353.835938 548.148438 354.492188 547.304688 355.171875 546.480469 C 355.847656 545.652344 356.546875 544.84375 357.265625 544.050781 C 357.984375 543.257812 358.71875 542.484375 359.476562 541.730469 C 360.230469 540.972656 361.003906 540.238281 361.796875 539.519531 C 362.589844 538.800781 363.398438 538.101562 364.222656 537.425781 C 365.050781 536.746094 365.890625 536.089844 366.75 535.453125 C 367.609375 534.816406 368.484375 534.199219 369.371094 533.605469 C 370.261719 533.011719 371.164062 532.441406 372.078125 531.890625 C 372.996094 531.34375 373.925781 530.816406 374.867188 530.3125 C 375.8125 529.808594 376.765625 529.328125 377.730469 528.871094 C 378.699219 528.414062 379.675781 527.980469 380.660156 527.570312 C 381.648438 527.164062 382.644531 526.777344 383.652344 526.417969 C 384.660156 526.058594 385.671875 525.722656 386.695312 525.414062 C 387.71875 525.101562 388.75 524.816406 389.785156 524.558594 C 390.820312 524.296875 391.863281 524.0625 392.914062 523.855469 C 393.960938 523.644531 395.011719 523.464844 396.070312 523.308594 C 397.128906 523.148438 398.1875 523.019531 399.253906 522.914062 C 400.316406 522.808594 401.382812 522.730469 402.449219 522.679688 C 403.515625 522.625 404.585938 522.601562 405.652344 522.601562 C 406.722656 522.601562 407.789062 522.625 408.859375 522.679688 C 409.925781 522.730469 410.992188 522.808594 412.054688 522.914062 C 413.117188 523.019531 414.179688 523.148438 415.234375 523.308594 C 416.292969 523.464844 417.34375 523.644531 418.394531 523.855469 C 419.441406 524.0625 420.484375 524.296875 421.519531 524.558594 C 422.558594 524.816406 423.585938 525.101562 424.609375 525.414062 C 425.632812 525.722656 426.648438 526.058594 427.652344 526.417969 C 428.660156 526.777344 429.65625 527.164062 430.644531 527.570312 C 431.632812 527.980469 432.609375 528.414062 433.574219 528.871094 C 434.539062 529.328125 435.496094 529.808594 436.4375 530.3125 C 437.378906 530.816406 438.308594 531.34375 439.226562 531.890625 C 440.144531 532.441406 441.046875 533.011719 441.933594 533.605469 C 442.824219 534.199219 443.695312 534.816406 444.554688 535.453125 C 445.414062 536.089844 446.257812 536.746094 447.082031 537.425781 C 447.910156 538.101562 448.71875 538.800781 449.507812 539.519531 C 450.300781 540.238281 451.074219 540.972656 451.832031 541.730469 C 452.585938 542.484375 453.324219 543.257812 454.042969 544.050781 C 454.757812 544.84375 455.457031 545.652344 456.136719 546.480469 C 456.8125 547.304688 457.46875 548.148438 458.105469 549.003906 C 458.742188 549.863281 459.359375 550.738281 459.953125 551.625 C 460.546875 552.515625 461.117188 553.417969 461.667969 554.335938 C 462.21875 555.25 462.742188 556.179688 463.246094 557.125 C 463.75 558.066406 464.230469 559.023438 464.6875 559.988281 C 465.144531 560.953125 465.578125 561.929688 465.988281 562.917969 C 466.398438 563.90625 466.78125 564.902344 467.140625 565.910156 C 467.5 566.914062 467.835938 567.929688 468.148438 568.953125 C 468.457031 569.976562 468.742188 571.007812 469 572.042969 C 469.261719 573.078125 469.496094 574.121094 469.703125 575.171875 C 469.914062 576.21875 470.09375 577.273438 470.25 578.328125 C 470.410156 579.386719 470.539062 580.445312 470.644531 581.511719 C 470.75 582.574219 470.828125 583.640625 470.878906 584.707031 C 470.933594 585.773438 470.957031 586.84375 470.957031 587.914062 Z M 470.957031 587.914062 "/><g clip-rule="nonzero" clip-path="url(#6cdafdb7bc)"><path style=" stroke:none;fill-rule:nonzero;fill:#000000;fill-opacity:1;" d="M 523.203125 705.476562 C 523.203125 676.621094 502.148438 653.226562 476.183594 653.226562 L 335.121094 653.226562 C 309.15625 653.226562 288.101562 676.621094 288.101562 705.476562 L 288.101562 796.914062 L 523.203125 796.914062 Z M 523.203125 705.476562 "/></g><path style=" stroke:none;fill-rule:nonzero;fill:#000000;fill-opacity:1;" d="M 417.800781 327.082031 C 506.199219 333.335938 575.449219 407.726562 575.449219 496.476562 L 601.570312 496.476562 C 601.570312 394.078125 521.648438 308.230469 419.628906 301.035156 Z M 417.800781 327.082031 "/><path style=" stroke:none;fill-rule:nonzero;fill:#000000;fill-opacity:1;" d="M 214.253906 454.492188 C 211.25 468.179688 209.734375 482.316406 209.734375 496.476562 L 235.859375 496.476562 C 235.859375 484.195312 237.175781 471.945312 239.777344 460.082031 Z M 214.253906 454.492188 "/><path style=" stroke:none;fill-rule:nonzero;fill:#000000;fill-opacity:1;" d="M 673.457031 333.46875 C 703.328125 382.519531 719.121094 438.894531 719.121094 496.476562 L 745.242188 496.476562 C 745.242188 434.101562 728.132812 373.035156 695.765625 319.855469 Z M 673.457031 333.46875 "/><path style=" stroke:none;fill-rule:nonzero;fill:#000000;fill-opacity:1;" d="M 66.0625 496.476562 L 92.1875 496.476562 C 92.1875 323.617188 232.816406 182.976562 405.652344 182.976562 C 431.160156 182.976562 456.472656 186.03125 480.886719 192.054688 L 487.140625 166.699219 C 460.691406 160.167969 433.277344 156.851562 405.652344 156.851562 C 218.410156 156.851562 66.0625 309.199219 66.0625 496.476562 Z M 66.0625 496.476562 "/><path style=" stroke:none;fill-rule:nonzero;fill:#000000;fill-opacity:1;" d="M 405.652344 26.226562 C 355.054688 26.226562 305.332031 34.207031 257.867188 49.945312 L 266.09375 74.738281 C 310.894531 59.886719 357.847656 52.351562 405.652344 52.351562 C 560.480469 52.351562 706.347656 134.8125 786.308594 267.566406 L 808.679688 254.101562 C 724.019531 113.546875 569.597656 26.226562 405.652344 26.226562 Z M 405.652344 26.226562 "/><path style=" stroke:none;fill-rule:nonzero;fill:#000000;fill-opacity:1;" d="M 63.074219 213.777344 L 42.933594 197.148438 C 28.148438 215.054688 14.589844 234.21875 2.640625 254.085938 L 25.027344 267.554688 C 36.308594 248.785156 49.109375 230.691406 63.074219 213.777344 Z M 63.074219 213.777344 "/><path style=" stroke:none;fill-rule:nonzero;fill:#000000;fill-opacity:1;" d="M 627.691406 692.414062 L 758.304688 692.414062 C 765.511719 692.414062 771.363281 686.558594 771.363281 679.351562 L 771.363281 548.726562 C 771.363281 541.515625 765.511719 535.664062 758.304688 535.664062 L 627.691406 535.664062 C 620.484375 535.664062 614.632812 541.515625 614.632812 548.726562 L 614.632812 587.914062 L 536.265625 640.164062 L 614.632812 640.164062 L 614.632812 679.351562 C 614.632812 686.558594 620.484375 692.414062 627.691406 692.414062 Z M 627.691406 692.414062 "/><path style=" stroke:none;fill-rule:nonzero;fill:#000000;fill-opacity:1;" d="M 170.550781 535.664062 L 39.941406 535.664062 C 32.730469 535.664062 26.878906 541.515625 26.878906 548.726562 L 26.878906 679.351562 C 26.878906 686.558594 32.730469 692.414062 39.941406 692.414062 L 170.550781 692.414062 C 177.761719 692.414062 183.613281 686.558594 183.613281 679.351562 L 183.613281 640.164062 L 261.980469 640.164062 L 183.613281 587.914062 L 183.613281 548.726562 C 183.613281 541.515625 177.761719 535.664062 170.550781 535.664062 Z M 170.550781 535.664062 "/><path style=" stroke:none;fill-rule:nonzero;fill:#000000;fill-opacity:1;" d="M 601.570312 130.726562 C 543.867188 130.726562 497.082031 177.515625 497.082031 235.226562 C 497.082031 292.933594 543.867188 339.726562 601.570312 339.726562 C 659.273438 339.726562 706.058594 292.933594 706.058594 235.226562 C 706.058594 177.515625 659.273438 130.726562 601.570312 130.726562 Z M 601.570312 326.664062 C 576.035156 326.664062 552.984375 316.171875 536.394531 299.296875 C 537.0625 271.03125 560.074219 248.289062 588.507812 248.289062 L 601.570312 248.289062 C 579.929688 248.289062 562.386719 230.746094 562.386719 209.101562 C 562.386719 187.457031 579.929688 169.914062 601.570312 169.914062 C 623.210938 169.914062 640.753906 187.457031 640.753906 209.101562 C 640.753906 230.746094 623.210938 248.289062 601.570312 248.289062 L 614.632812 248.289062 C 643.066406 248.289062 666.078125 271.03125 666.746094 299.296875 C 650.15625 316.171875 627.105469 326.664062 601.570312 326.664062 Z M 601.570312 326.664062 "/><path style=" stroke:none;fill-rule:nonzero;fill:#000000;fill-opacity:1;" d="M 405.652344 352.789062 C 405.652344 295.078125 358.867188 248.289062 301.164062 248.289062 C 243.460938 248.289062 196.675781 295.078125 196.675781 352.789062 C 196.675781 410.496094 243.460938 457.289062 301.164062 457.289062 C 358.867188 457.289062 405.652344 410.496094 405.652344 352.789062 Z M 288.101562 365.851562 L 301.164062 365.851562 C 279.523438 365.851562 261.980469 348.308594 261.980469 326.664062 C 261.980469 305.019531 279.523438 287.476562 301.164062 287.476562 C 322.804688 287.476562 340.347656 305.019531 340.347656 326.664062 C 340.347656 348.308594 322.804688 365.851562 301.164062 365.851562 L 314.226562 365.851562 C 342.660156 365.851562 365.671875 388.589844 366.339844 416.859375 C 349.75 433.734375 326.699219 444.226562 301.164062 444.226562 C 275.628906 444.226562 252.578125 433.734375 235.988281 416.859375 C 236.65625 388.589844 259.667969 365.851562 288.101562 365.851562 Z M 288.101562 365.851562 "/><g clip-rule="nonzero" clip-path="url(#f7d3bb111d)"><path style=" stroke:none;fill-rule:nonzero;fill:#000000;fill-opacity:1;" d="M 144.429688 13.164062 C 86.726562 13.164062 39.941406 59.953125 39.941406 117.664062 C 39.941406 175.371094 86.726562 222.164062 144.429688 222.164062 C 202.132812 222.164062 248.917969 175.371094 248.917969 117.664062 C 248.917969 59.953125 202.132812 13.164062 144.429688 13.164062 Z M 144.429688 209.101562 C 118.894531 209.101562 95.84375 198.609375 79.253906 181.734375 C 79.921875 153.46875 102.933594 130.726562 131.371094 130.726562 L 144.429688 130.726562 C 122.789062 130.726562 105.246094 113.183594 105.246094 91.539062 C 105.246094 69.894531 122.789062 52.351562 144.429688 52.351562 C 166.074219 52.351562 183.613281 69.894531 183.613281 91.539062 C 183.613281 113.183594 166.074219 130.726562 144.429688 130.726562 L 157.492188 130.726562 C 185.925781 130.726562 208.9375 153.46875 209.605469 181.734375 C 193.019531 198.609375 169.964844 209.101562 144.429688 209.101562 Z M 144.429688 209.101562 "/></g></g></svg>