<svg xmlns="http://www.w3.org/2000/svg" xmlns:xlink="http://www.w3.org/1999/xlink" width="1080" zoomAndPan="magnify" viewBox="0 0 810 809.999993" height="1080" preserveAspectRatio="xMidYMid meet" version="1.2"><defs><clipPath id="79ebe66cb2"><path d="M 7.085938 211 L 126 211 L 126 267 L 7.085938 267 Z M 7.085938 211 "/></clipPath></defs><g id="e020122955"><path style=" stroke:none;fill-rule:nonzero;fill:#000000;fill-opacity:1;" d="M 648.175781 411.734375 L 647.507812 410.859375 C 642.304688 403.957031 635.039062 405.179688 632.910156 405.738281 C 630.808594 406.28125 623.808594 408.703125 622.597656 417.246094 L 614.863281 471.386719 C 614.75 472.109375 614.359375 472.722656 614.152344 473.417969 C 628.234375 454.699219 639.730469 433.976562 648.175781 411.734375 Z M 648.175781 411.734375 "/><path style=" stroke:none;fill-rule:nonzero;fill:#000000;fill-opacity:1;" d="M 601.085938 483.3125 C 600.429688 483.3125 599.761719 483.273438 599.109375 483.175781 L 516.460938 471.359375 C 508.847656 470.273438 503.558594 463.21875 504.644531 455.605469 L 512.382812 401.464844 C 513.605469 392.933594 507.566406 388.632812 505.703125 387.519531 C 503.808594 386.40625 497.171875 383.175781 490.285156 388.367188 L 446.515625 421.171875 C 440.378906 425.765625 431.640625 424.539062 427.046875 418.390625 L 376.949219 351.585938 C 372.34375 345.445312 373.582031 336.71875 379.730469 332.113281 L 423.472656 299.308594 C 430.375 294.132812 429.136719 286.828125 428.605469 284.710938 C 428.0625 282.609375 425.628906 275.609375 417.082031 274.398438 L 362.949219 266.660156 C 359.289062 266.132812 356.003906 264.183594 353.792969 261.21875 C 351.578125 258.269531 350.621094 254.550781 351.148438 250.90625 L 362.964844 168.25 C 364.046875 160.636719 371.105469 155.390625 378.714844 156.433594 L 432.851562 164.171875 C 441.3125 165.328125 445.667969 159.355469 446.792969 157.492188 C 447.910156 155.613281 451.136719 148.960938 445.945312 142.042969 L 413.144531 98.300781 C 410.933594 95.347656 409.972656 91.632812 410.5 87.988281 C 411.03125 84.328125 412.976562 81.042969 415.941406 78.828125 L 423.832031 72.914062 C 411.253906 72.425781 398.503906 72.523438 385.519531 73.957031 C 269.140625 86.816406 175.71875 181.945312 164.710938 298.515625 C 155.402344 397.054688 203.21875 485.25 278.894531 533.835938 C 301.871094 548.613281 316.59375 573.320312 316.59375 600.667969 L 316.59375 656.90625 C 316.59375 679.96875 335.285156 698.660156 358.34375 698.660156 L 469.671875 698.660156 C 492.734375 698.660156 511.421875 679.96875 511.421875 656.90625 L 511.421875 601.820312 C 511.421875 573.820312 526.464844 548.546875 549.96875 533.320312 C 571.957031 519.082031 591.523438 501.476562 608.042969 481.269531 C 605.914062 482.507812 603.546875 483.3125 601.085938 483.3125 Z M 427.925781 656.90625 L 400.089844 656.90625 L 400.089844 615.15625 L 427.925781 615.15625 Z M 400.089844 587.320312 C 400.089844 550.523438 377.671875 517.984375 342.980469 504.371094 C 267.777344 474.921875 219.179688 403.679688 219.179688 322.886719 C 219.179688 255.609375 253.175781 193.984375 310.121094 158.019531 L 324.984375 181.554688 C 276.167969 212.394531 247.011719 265.210938 247.011719 322.886719 C 247.011719 392.140625 288.664062 453.195312 353.136719 478.46875 C 398.574219 496.257812 427.925781 538.984375 427.925781 587.320312 Z M 400.089844 587.320312 "/><path style=" stroke:none;fill-rule:nonzero;fill:#000000;fill-opacity:1;" d="M 386.175781 810 L 441.839844 810 C 457.191406 810 469.671875 797.515625 469.671875 782.164062 L 469.671875 768.246094 L 358.34375 768.246094 L 358.34375 782.164062 C 358.34375 797.515625 370.824219 810 386.175781 810 Z M 386.175781 810 "/><path style=" stroke:none;fill-rule:nonzero;fill:#000000;fill-opacity:1;" d="M 90.257812 489.898438 C 90.257812 447.363281 122.238281 412.222656 163.402344 407.101562 C 158.28125 391.835938 154.648438 376.039062 152.367188 359.90625 L 149.933594 371.5 C 148 380.644531 141.679688 388.171875 133.011719 391.625 C 124.355469 395.0625 114.585938 393.992188 106.902344 388.6875 L 77.984375 368.757812 L 52.628906 394.117188 L 72.558594 423.023438 C 77.859375 430.691406 78.960938 440.460938 75.507812 449.144531 C 72.042969 457.816406 64.515625 464.136719 55.371094 466.054688 L 20.691406 473.347656 L 20.691406 506.429688 L 55.386719 513.722656 C 64.515625 515.644531 72.042969 521.960938 75.507812 530.632812 C 78.960938 539.316406 77.859375 549.089844 72.542969 556.769531 L 52.628906 585.664062 L 77.984375 611.019531 L 106.890625 591.089844 C 114.597656 585.773438 124.355469 584.703125 133.023438 588.15625 C 141.679688 591.621094 148 599.136719 149.933594 608.265625 L 157.222656 642.988281 L 190.304688 642.988281 L 197.597656 608.292969 C 199.515625 599.175781 205.820312 591.648438 214.488281 588.183594 C 223.175781 584.703125 232.941406 585.800781 240.625 591.117188 L 269.527344 611.050781 L 299.378906 581.195312 C 294.648438 566.972656 284.960938 554.320312 271.339844 545.566406 C 262.988281 540.207031 255.125 534.335938 247.542969 528.183594 C 233.429688 555.199219 205.261719 573.402344 173.757812 573.402344 C 127.722656 573.402344 90.257812 535.949219 90.257812 489.898438 Z M 90.257812 489.898438 "/><path style=" stroke:none;fill-rule:nonzero;fill:#000000;fill-opacity:1;" d="M 358.34375 712.578125 L 469.671875 712.578125 L 469.671875 740.414062 L 358.34375 740.414062 Z M 358.34375 712.578125 "/><path style=" stroke:none;fill-rule:nonzero;fill:#000000;fill-opacity:1;" d="M 761.484375 239.257812 C 744.449219 236.820312 731.214844 224.949219 726.957031 208.277344 C 722.683594 191.601562 728.585938 174.847656 742.347656 164.503906 L 774.953125 140.039062 L 741.554688 95.515625 L 708.949219 119.96875 C 695.1875 130.28125 677.402344 131.269531 662.621094 122.488281 C 647.828125 113.71875 640.132812 97.699219 642.570312 80.664062 L 648.332031 40.320312 L 593.234375 32.457031 L 587.476562 72.800781 C 585.039062 89.835938 573.167969 103.074219 556.496094 107.332031 C 539.8125 111.617188 523.070312 105.703125 512.730469 91.9375 L 488.265625 59.332031 L 443.746094 92.734375 L 468.199219 125.339844 C 478.523438 139.105469 479.5 156.863281 470.730469 171.671875 C 461.964844 186.46875 446 194.136719 428.898438 191.726562 L 388.554688 185.964844 L 380.691406 241.066406 L 421.035156 246.828125 C 438.070312 249.261719 451.304688 261.121094 455.5625 277.808594 C 459.847656 294.46875 453.949219 311.238281 440.171875 321.578125 L 407.578125 346.046875 L 440.964844 390.566406 L 473.582031 366.113281 C 487.332031 355.773438 505.089844 354.8125 519.882812 363.582031 C 534.691406 372.347656 542.386719 388.367188 539.949219 405.417969 L 534.1875 445.765625 L 589.285156 453.628906 L 595.046875 413.28125 C 597.480469 396.246094 609.351562 383.011719 626.023438 378.75 C 642.695312 374.421875 659.449219 380.367188 669.789062 394.144531 L 694.253906 426.738281 L 738.773438 393.351562 L 714.320312 360.726562 C 703.996094 346.976562 703.023438 329.21875 711.804688 314.410156 C 720.570312 299.617188 736.433594 291.890625 753.621094 294.355469 L 793.964844 300.117188 L 801.828125 245.019531 Z M 591.246094 326.5625 C 545.195312 326.5625 507.75 289.109375 507.75 243.054688 C 507.75 197.003906 545.195312 159.550781 591.246094 159.550781 C 637.296875 159.550781 674.742188 197.003906 674.742188 243.054688 C 674.742188 289.109375 637.296875 326.5625 591.246094 326.5625 Z M 591.246094 326.5625 "/><path style=" stroke:none;fill-rule:nonzero;fill:#000000;fill-opacity:1;" d="M 678.417969 517.730469 L 775.832031 517.730469 L 775.832031 545.566406 L 678.417969 545.566406 Z M 678.417969 517.730469 "/><path style=" stroke:none;fill-rule:nonzero;fill:#000000;fill-opacity:1;" d="M 655.597656 611.921875 L 673.414062 590.535156 L 756.914062 660.109375 L 739.101562 681.496094 Z M 655.597656 611.921875 "/><path style=" stroke:none;fill-rule:nonzero;fill:#000000;fill-opacity:1;" d="M 594.917969 629.070312 L 622.753906 629.070312 L 622.753906 726.496094 L 594.917969 726.496094 Z M 594.917969 629.070312 "/><g clip-rule="nonzero" clip-path="url(#79ebe66cb2)"><path style=" stroke:none;fill-rule:nonzero;fill:#000000;fill-opacity:1;" d="M 7.050781 239.800781 L 118.378906 211.96875 L 125.125 238.957031 L 13.796875 266.789062 Z M 7.050781 239.800781 "/></g><path style=" stroke:none;fill-rule:nonzero;fill:#000000;fill-opacity:1;" d="M 30.179688 97.617188 L 46.351562 74.976562 L 143.761719 144.558594 L 127.59375 167.199219 Z M 30.179688 97.617188 "/><path style=" stroke:none;fill-rule:nonzero;fill:#000000;fill-opacity:1;" d="M 149.40625 6.210938 L 176.371094 -0.683594 L 204.835938 110.652344 L 177.871094 117.546875 Z M 149.40625 6.210938 "/></g></svg>