<svg xmlns="http://www.w3.org/2000/svg" xmlns:xlink="http://www.w3.org/1999/xlink" width="1080" zoomAndPan="magnify" viewBox="0 0 810 809.999993" height="1080" preserveAspectRatio="xMidYMid meet" version="1.2"><g id="18bc83786e"><path style=" stroke:none;fill-rule:nonzero;fill:#000000;fill-opacity:1;" d="M 38.90625 512.8125 C 35.15625 501.5625 32.34375 489.375 29.53125 478.125 C 28.59375 471.5625 22.03125 467.8125 15.46875 468.75 C 8.90625 469.6875 5.15625 476.25 6.09375 482.8125 C 6.09375 482.8125 11.71875 508.125 16.40625 520.3125 C 18.28125 526.875 24.84375 529.6875 31.40625 527.8125 C 39.84375 525 39.84375 516.5625 38.90625 512.8125 Z M 38.90625 512.8125 "/><path style=" stroke:none;fill-rule:nonzero;fill:#000000;fill-opacity:1;" d="M 22.96875 414.375 C 22.96875 402.1875 22.96875 390 23.90625 377.8125 C 24.84375 371.25 20.15625 365.625 13.59375 365.625 C 7.03125 364.6875 1.40625 370.3125 1.40625 376.875 C 1.40625 376.875 0.46875 403.125 0.46875 415.3125 C 0.46875 421.875 6.09375 426.5625 12.65625 426.5625 C 21.09375 425.625 22.96875 418.125 22.96875 414.375 Z M 22.96875 414.375 "/><path style=" stroke:none;fill-rule:nonzero;fill:#000000;fill-opacity:1;" d="M 34.21875 315 C 37.03125 302.8125 40.78125 291.5625 44.53125 280.3125 C 46.40625 274.6875 43.59375 267.1875 37.96875 265.3125 C 31.40625 263.4375 24.84375 266.25 22.96875 272.8125 C 22.96875 272.8125 14.53125 297.1875 11.71875 309.375 C 9.84375 315.9375 13.59375 322.5 20.15625 323.4375 C 28.59375 325.3125 33.28125 318.75 34.21875 315 Z M 34.21875 315 "/><path style=" stroke:none;fill-rule:nonzero;fill:#000000;fill-opacity:1;" d="M 334.21875 780.9375 C 327.65625 780 322.03125 783.75 320.15625 790.3125 C 318.28125 796.875 322.96875 802.5 329.53125 804.375 C 341.71875 806.25 368.90625 810 368.90625 810 C 375.46875 810 381.09375 805.3125 381.09375 798.75 C 381.09375 792.1875 377.34375 785.625 370.78125 785.625 C 370.78125 785.625 346.40625 782.8125 334.21875 780.9375 Z M 334.21875 780.9375 "/><path style=" stroke:none;fill-rule:nonzero;fill:#000000;fill-opacity:1;" d="M 764.53125 277.5 C 766.40625 282.1875 771.09375 285 775.78125 285 C 776.71875 285 778.59375 285 779.53125 284.0625 C 785.15625 282.1875 788.90625 275.625 787.03125 269.0625 C 782.34375 256.875 777.65625 244.6875 772.03125 233.4375 C 768.28125 227.8125 760.78125 226.875 756.09375 230.625 C 752.34375 233.4375 750.46875 238.125 751.40625 242.8125 C 756.09375 255 760.78125 266.25 764.53125 277.5 Z M 764.53125 277.5 "/><path style=" stroke:none;fill-rule:nonzero;fill:#000000;fill-opacity:1;" d="M 780.46875 339.375 C 782.34375 351.5625 784.21875 363.75 785.15625 375 C 786.09375 387.1875 798.28125 386.25 798.28125 386.25 C 804.84375 385.3125 809.53125 379.6875 808.59375 373.125 C 808.59375 373.125 805.78125 346.875 803.90625 334.6875 C 802.96875 328.125 796.40625 324.375 790.78125 325.3125 C 784.21875 327.1875 779.53125 332.8125 780.46875 339.375 Z M 780.46875 339.375 "/><path style=" stroke:none;fill-rule:nonzero;fill:#000000;fill-opacity:1;" d="M 470.15625 781.875 C 457.96875 783.75 446.71875 785.625 434.53125 786.5625 C 427.96875 786.5625 423.28125 792.1875 423.28125 798.75 C 423.28125 805.3125 428.90625 810 435.46875 810 C 435.46875 810 461.71875 807.1875 474.84375 805.3125 C 481.40625 804.375 485.15625 797.8125 484.21875 792.1875 C 482.34375 784.6875 476.71875 780.9375 470.15625 781.875 Z M 470.15625 781.875 "/><path style=" stroke:none;fill-rule:nonzero;fill:#000000;fill-opacity:1;" d="M 273.28125 764.0625 C 262.03125 760.3125 250.78125 754.6875 239.53125 750 C 233.90625 747.1875 226.40625 749.0625 223.59375 754.6875 C 220.78125 760.3125 222.65625 767.8125 228.28125 770.625 C 228.28125 770.625 252.65625 781.875 264.84375 786.5625 C 265.78125 786.5625 267.65625 787.5 268.59375 787.5 C 275.15625 787.5 279.84375 781.875 279.84375 775.3125 C 280.78125 769.6875 277.96875 765.9375 273.28125 764.0625 Z M 273.28125 764.0625 "/><path style=" stroke:none;fill-rule:nonzero;fill:#000000;fill-opacity:1;" d="M 716.71875 624.375 C 710.15625 634.6875 702.65625 644.0625 694.21875 653.4375 C 690.46875 658.125 690.46875 665.625 695.15625 670.3125 C 699.84375 674.0625 707.34375 674.0625 712.03125 669.375 C 720.46875 660 727.96875 649.6875 735.46875 639.375 C 739.21875 633.75 738.28125 627.1875 732.65625 623.4375 C 727.03125 619.6875 720.46875 619.6875 716.71875 624.375 Z M 716.71875 624.375 "/><path style=" stroke:none;fill-rule:nonzero;fill:#000000;fill-opacity:1;" d="M 778.59375 529.6875 C 772.96875 527.8125 765.46875 530.625 763.59375 536.25 C 763.59375 536.25 754.21875 558.75 749.53125 570 C 746.71875 575.625 749.53125 583.125 755.15625 585.9375 C 764.53125 589.6875 768.28125 584.0625 770.15625 580.3125 C 775.78125 569.0625 780.46875 556.875 785.15625 544.6875 C 787.03125 538.125 784.21875 531.5625 778.59375 529.6875 Z M 778.59375 529.6875 "/><path style=" stroke:none;fill-rule:nonzero;fill:#000000;fill-opacity:1;" d="M 564.84375 751.875 C 553.59375 756.5625 542.34375 761.25 531.09375 765.9375 C 524.53125 767.8125 521.71875 774.375 523.59375 780.9375 C 525.46875 785.625 530.15625 788.4375 534.84375 788.4375 C 535.78125 788.4375 537.65625 788.4375 538.59375 787.5 C 550.78125 783.75 562.96875 778.125 574.21875 772.5 C 579.84375 769.6875 582.65625 763.125 579.84375 756.5625 C 577.96875 751.875 571.40625 749.0625 564.84375 751.875 Z M 564.84375 751.875 "/><path style=" stroke:none;fill-rule:nonzero;fill:#000000;fill-opacity:1;" d="M 714.84375 145.3125 C 710.15625 140.625 703.59375 139.6875 697.96875 144.375 C 693.28125 148.125 692.34375 155.625 696.09375 160.3125 C 703.59375 169.6875 711.09375 179.0625 717.65625 189.375 C 721.40625 195 728.90625 195.9375 733.59375 192.1875 C 739.21875 188.4375 740.15625 180.9375 736.40625 176.25 C 730.78125 165 723.28125 154.6875 714.84375 145.3125 Z M 714.84375 145.3125 "/><path style=" stroke:none;fill-rule:nonzero;fill:#000000;fill-opacity:1;" d="M 798.28125 428.4375 C 791.71875 427.5 786.09375 432.1875 785.15625 438.75 C 785.15625 438.75 782.34375 463.125 780.46875 475.3125 C 779.53125 481.875 783.28125 487.5 789.84375 489.375 C 789.84375 489.375 801.09375 492.1875 803.90625 480 C 805.78125 467.8125 807.65625 454.6875 809.53125 441.5625 C 808.59375 435 803.90625 429.375 798.28125 428.4375 Z M 798.28125 428.4375 "/><path style=" stroke:none;fill-rule:nonzero;fill:#000000;fill-opacity:1;" d="M 649.21875 698.4375 C 639.84375 705.9375 630.46875 713.4375 620.15625 720 C 614.53125 723.75 613.59375 731.25 617.34375 735.9375 C 621.09375 740.625 628.59375 742.5 633.28125 738.75 C 643.59375 731.25 653.90625 723.75 664.21875 715.3125 C 668.90625 710.625 669.84375 704.0625 665.15625 698.4375 C 661.40625 694.6875 654.84375 694.6875 649.21875 698.4375 Z M 649.21875 698.4375 "/><path style=" stroke:none;fill-rule:nonzero;fill:#000000;fill-opacity:1;" d="M 69.84375 222.1875 C 75.46875 211.875 82.03125 201.5625 88.59375 191.25 C 92.34375 185.625 91.40625 179.0625 85.78125 175.3125 C 80.15625 171.5625 73.59375 173.4375 69.84375 178.125 C 69.84375 178.125 55.78125 199.6875 49.21875 210.9375 C 46.40625 216.5625 48.28125 224.0625 53.90625 226.875 C 61.40625 230.625 67.96875 225.9375 69.84375 222.1875 Z M 69.84375 222.1875 "/><path style=" stroke:none;fill-rule:nonzero;fill:#000000;fill-opacity:1;" d="M 74.53125 620.625 C 80.15625 616.875 82.03125 610.3125 78.28125 604.6875 C 71.71875 594.375 66.09375 584.0625 60.46875 572.8125 C 57.65625 567.1875 51.09375 564.375 44.53125 567.1875 C 38.90625 570 36.09375 577.5 38.90625 583.125 C 44.53125 594.375 51.09375 605.625 57.65625 616.875 C 59.53125 620.625 63.28125 622.5 67.96875 622.5 C 70.78125 621.5625 72.65625 621.5625 74.53125 620.625 Z M 74.53125 620.625 "/><path style=" stroke:none;fill-rule:nonzero;fill:#000000;fill-opacity:1;" d="M 600.46875 77.8125 C 602.34375 78.75 604.21875 79.6875 607.03125 79.6875 C 613.59375 79.6875 618.28125 74.0625 618.28125 67.5 C 618.28125 63.75 616.40625 60 612.65625 57.1875 C 607.96875 54.375 603.28125 51.5625 599.53125 49.6875 C 593.90625 46.875 587.34375 48.75 583.59375 54.375 C 583.59375 54.375 577.03125 63.75 587.34375 70.3125 C 588.28125 70.3125 600.46875 77.8125 600.46875 77.8125 Z M 600.46875 77.8125 "/><path style=" stroke:none;fill-rule:nonzero;fill:#000000;fill-opacity:1;" d="M 530.15625 45 C 531.09375 45 532.96875 45.9375 533.90625 45.9375 C 540.46875 45.9375 546.09375 40.3125 546.09375 34.6875 C 546.09375 30 543.28125 25.3125 538.59375 23.4375 C 526.40625 19.6875 514.21875 15.9375 501.09375 12.1875 C 494.53125 10.3125 488.90625 14.0625 487.03125 20.625 C 485.15625 27.1875 488.90625 32.8125 495.46875 34.6875 C 494.53125 34.6875 518.90625 41.25 530.15625 45 Z M 530.15625 45 "/><path style=" stroke:none;fill-rule:nonzero;fill:#000000;fill-opacity:1;" d="M 432.65625 24.375 C 439.21875 24.375 444.84375 19.6875 444.84375 13.125 C 444.84375 6.5625 440.15625 0.9375 433.59375 0.9375 C 420.46875 0 407.34375 0 395.15625 0 C 388.59375 0 383.90625 5.625 383.90625 11.25 C 383.90625 16.875 389.53125 22.5 395.15625 22.5 Z M 432.65625 24.375 "/><path style=" stroke:none;fill-rule:nonzero;fill:#000000;fill-opacity:1;" d="M 200.15625 80.625 C 202.03125 80.625 204.84375 79.6875 205.78125 78.75 C 216.09375 72.1875 226.40625 66.5625 237.65625 60.9375 C 243.28125 58.125 246.09375 51.5625 243.28125 45 C 240.46875 39.375 233.90625 36.5625 227.34375 39.375 C 216.09375 45 203.90625 51.5625 193.59375 58.125 C 187.96875 61.875 186.09375 68.4375 189.84375 74.0625 C 192.65625 78.75 196.40625 80.625 200.15625 80.625 Z M 200.15625 80.625 "/><path style=" stroke:none;fill-rule:nonzero;fill:#000000;fill-opacity:1;" d="M 333.28125 30.9375 C 339.84375 30 343.59375 23.4375 342.65625 16.875 C 341.71875 10.3125 335.15625 6.5625 328.59375 7.5 C 316.40625 10.3125 303.28125 13.125 291.09375 16.875 C 284.53125 18.75 281.71875 25.3125 283.59375 31.875 C 285.46875 36.5625 289.21875 40.3125 294.84375 40.3125 C 293.90625 40.3125 321.09375 32.8125 333.28125 30.9375 Z M 333.28125 30.9375 "/><path style=" stroke:none;fill-rule:nonzero;fill:#000000;fill-opacity:1;" d="M 128.90625 141.5625 C 137.34375 133.125 145.78125 124.6875 155.15625 116.25 C 159.84375 111.5625 159.84375 104.0625 155.15625 99.375 C 151.40625 94.6875 143.90625 94.6875 139.21875 98.4375 C 129.84375 106.875 120.46875 116.25 111.09375 124.6875 C 106.40625 129.375 106.40625 136.875 111.09375 141.5625 C 118.59375 149.0625 126.09375 144.375 128.90625 141.5625 Z M 128.90625 141.5625 "/><path style=" stroke:none;fill-rule:nonzero;fill:#000000;fill-opacity:1;" d="M 212.34375 695.625 C 212.34375 696.804688 212.316406 697.988281 212.257812 699.167969 C 212.199219 700.347656 212.113281 701.523438 211.996094 702.699219 C 211.878906 703.875 211.734375 705.046875 211.5625 706.21875 C 211.390625 707.386719 211.1875 708.550781 210.957031 709.707031 C 210.726562 710.867188 210.46875 712.019531 210.179688 713.164062 C 209.894531 714.3125 209.578125 715.449219 209.234375 716.578125 C 208.890625 717.710938 208.523438 718.832031 208.125 719.945312 C 207.726562 721.054688 207.300781 722.160156 206.847656 723.25 C 206.398438 724.339844 205.917969 725.421875 205.414062 726.488281 C 204.90625 727.558594 204.375 728.613281 203.820312 729.652344 C 203.261719 730.695312 202.679688 731.722656 202.074219 732.738281 C 201.464844 733.75 200.835938 734.746094 200.179688 735.730469 C 199.523438 736.710938 198.839844 737.679688 198.136719 738.628906 C 197.433594 739.574219 196.707031 740.507812 195.957031 741.421875 C 195.207031 742.332031 194.4375 743.226562 193.644531 744.101562 C 192.851562 744.980469 192.035156 745.832031 191.199219 746.667969 C 190.363281 747.503906 189.507812 748.320312 188.632812 749.113281 C 187.757812 749.90625 186.863281 750.675781 185.953125 751.425781 C 185.039062 752.175781 184.105469 752.902344 183.160156 753.605469 C 182.210938 754.308594 181.242188 754.988281 180.261719 755.648438 C 179.277344 756.304688 178.28125 756.933594 177.269531 757.542969 C 176.253906 758.148438 175.226562 758.730469 174.183594 759.289062 C 173.144531 759.84375 172.089844 760.375 171.019531 760.882812 C 169.953125 761.386719 168.871094 761.867188 167.78125 762.316406 C 166.691406 762.769531 165.585938 763.195312 164.476562 763.59375 C 163.363281 763.992188 162.242188 764.359375 161.109375 764.703125 C 159.980469 765.046875 158.84375 765.363281 157.695312 765.648438 C 156.550781 765.9375 155.398438 766.195312 154.238281 766.425781 C 153.082031 766.65625 151.917969 766.859375 150.75 767.03125 C 149.578125 767.203125 148.40625 767.347656 147.230469 767.464844 C 146.054688 767.582031 144.878906 767.667969 143.699219 767.726562 C 142.519531 767.785156 141.335938 767.8125 140.15625 767.8125 C 138.976562 767.8125 137.792969 767.785156 136.613281 767.726562 C 135.433594 767.667969 134.257812 767.582031 133.082031 767.464844 C 131.90625 767.347656 130.734375 767.203125 129.5625 767.03125 C 128.394531 766.859375 127.230469 766.65625 126.074219 766.425781 C 124.914062 766.195312 123.761719 765.9375 122.617188 765.648438 C 121.46875 765.363281 120.332031 765.046875 119.203125 764.703125 C 118.070312 764.359375 116.949219 763.992188 115.835938 763.59375 C 114.726562 763.195312 113.621094 762.769531 112.53125 762.316406 C 111.441406 761.867188 110.359375 761.386719 109.292969 760.882812 C 108.222656 760.375 107.167969 759.84375 106.128906 759.289062 C 105.085938 758.730469 104.058594 758.148438 103.042969 757.542969 C 102.03125 756.933594 101.035156 756.304688 100.050781 755.648438 C 99.070312 754.988281 98.101562 754.308594 97.152344 753.605469 C 96.207031 752.902344 95.273438 752.175781 94.359375 751.425781 C 93.449219 750.675781 92.554688 749.90625 91.679688 749.113281 C 90.800781 748.320312 89.949219 747.503906 89.113281 746.667969 C 88.277344 745.832031 87.460938 744.980469 86.667969 744.101562 C 85.875 743.226562 85.105469 742.332031 84.355469 741.421875 C 83.605469 740.507812 82.878906 739.574219 82.175781 738.628906 C 81.472656 737.679688 80.789062 736.710938 80.132812 735.730469 C 79.476562 734.746094 78.847656 733.75 78.238281 732.738281 C 77.632812 731.722656 77.050781 730.695312 76.492188 729.652344 C 75.9375 728.613281 75.40625 727.558594 74.898438 726.488281 C 74.394531 725.421875 73.914062 724.339844 73.464844 723.25 C 73.011719 722.160156 72.585938 721.054688 72.1875 719.945312 C 71.789062 718.832031 71.421875 717.710938 71.078125 716.578125 C 70.734375 715.449219 70.417969 714.3125 70.132812 713.164062 C 69.84375 712.019531 69.585938 710.867188 69.355469 709.707031 C 69.125 708.550781 68.921875 707.386719 68.75 706.21875 C 68.578125 705.046875 68.433594 703.875 68.316406 702.699219 C 68.199219 701.523438 68.113281 700.347656 68.054688 699.167969 C 67.996094 697.988281 67.96875 696.804688 67.96875 695.625 C 67.96875 694.445312 67.996094 693.261719 68.054688 692.082031 C 68.113281 690.902344 68.199219 689.726562 68.316406 688.550781 C 68.433594 687.375 68.578125 686.203125 68.75 685.03125 C 68.921875 683.863281 69.125 682.699219 69.355469 681.542969 C 69.585938 680.382812 69.84375 679.230469 70.132812 678.085938 C 70.417969 676.9375 70.734375 675.800781 71.078125 674.671875 C 71.421875 673.539062 71.789062 672.417969 72.1875 671.304688 C 72.585938 670.195312 73.011719 669.089844 73.464844 668 C 73.914062 666.910156 74.394531 665.828125 74.898438 664.761719 C 75.40625 663.691406 75.9375 662.636719 76.492188 661.597656 C 77.050781 660.554688 77.632812 659.527344 78.238281 658.511719 C 78.847656 657.5 79.476562 656.503906 80.132812 655.519531 C 80.789062 654.539062 81.472656 653.570312 82.175781 652.621094 C 82.878906 651.675781 83.605469 650.742188 84.355469 649.828125 C 85.105469 648.917969 85.875 648.023438 86.667969 647.148438 C 87.460938 646.273438 88.277344 645.417969 89.113281 644.582031 C 89.949219 643.746094 90.800781 642.929688 91.679688 642.136719 C 92.554688 641.34375 93.449219 640.574219 94.359375 639.824219 C 95.273438 639.074219 96.207031 638.347656 97.152344 637.644531 C 98.101562 636.941406 99.070312 636.257812 100.050781 635.601562 C 101.035156 634.945312 102.03125 634.316406 103.042969 633.707031 C 104.058594 633.101562 105.085938 632.519531 106.128906 631.960938 C 107.167969 631.40625 108.222656 630.875 109.292969 630.367188 C 110.359375 629.863281 111.441406 629.382812 112.53125 628.933594 C 113.621094 628.480469 114.726562 628.054688 115.835938 627.65625 C 116.949219 627.257812 118.070312 626.890625 119.203125 626.546875 C 120.332031 626.203125 121.46875 625.886719 122.617188 625.601562 C 123.761719 625.3125 124.914062 625.054688 126.074219 624.824219 C 127.230469 624.59375 128.394531 624.390625 129.5625 624.21875 C 130.734375 624.046875 131.90625 623.902344 133.082031 623.785156 C 134.257812 623.667969 135.433594 623.582031 136.613281 623.523438 C 137.792969 623.464844 138.976562 623.4375 140.15625 623.4375 C 141.335938 623.4375 142.519531 623.464844 143.699219 623.523438 C 144.878906 623.582031 146.054688 623.667969 147.230469 623.785156 C 148.40625 623.902344 149.578125 624.046875 150.75 624.21875 C 151.917969 624.390625 153.082031 624.59375 154.238281 624.824219 C 155.398438 625.054688 156.550781 625.3125 157.695312 625.601562 C 158.84375 625.886719 159.980469 626.203125 161.109375 626.546875 C 162.242188 626.890625 163.363281 627.257812 164.476562 627.65625 C 165.585938 628.054688 166.691406 628.480469 167.78125 628.933594 C 168.871094 629.382812 169.953125 629.863281 171.019531 630.367188 C 172.089844 630.875 173.144531 631.40625 174.183594 631.960938 C 175.226562 632.519531 176.253906 633.101562 177.269531 633.707031 C 178.28125 634.316406 179.277344 634.945312 180.261719 635.601562 C 181.242188 636.257812 182.210938 636.941406 183.160156 637.644531 C 184.105469 638.347656 185.039062 639.074219 185.953125 639.824219 C 186.863281 640.574219 187.757812 641.34375 188.632812 642.136719 C 189.507812 642.929688 190.363281 643.746094 191.199219 644.582031 C 192.035156 645.417969 192.851562 646.269531 193.644531 647.148438 C 194.4375 648.023438 195.207031 648.917969 195.957031 649.828125 C 196.707031 650.742188 197.433594 651.675781 198.136719 652.621094 C 198.839844 653.570312 199.523438 654.539062 200.179688 655.519531 C 200.835938 656.5 201.464844 657.5 202.074219 658.511719 C 202.679688 659.527344 203.261719 660.554688 203.820312 661.597656 C 204.375 662.636719 204.90625 663.691406 205.414062 664.761719 C 205.917969 665.828125 206.398438 666.910156 206.847656 668 C 207.300781 669.089844 207.726562 670.195312 208.125 671.304688 C 208.523438 672.417969 208.890625 673.539062 209.234375 674.671875 C 209.578125 675.800781 209.894531 676.9375 210.179688 678.085938 C 210.46875 679.230469 210.726562 680.382812 210.957031 681.542969 C 211.1875 682.699219 211.390625 683.863281 211.5625 685.03125 C 211.734375 686.203125 211.878906 687.375 211.996094 688.550781 C 212.113281 689.726562 212.199219 690.902344 212.257812 692.082031 C 212.316406 693.261719 212.34375 694.445312 212.34375 695.625 Z M 212.34375 695.625 "/><path style=" stroke:none;fill-rule:nonzero;fill:#000000;fill-opacity:1;" d="M 658.59375 144.375 C 680.15625 144.375 697.03125 127.5 697.03125 105.9375 C 697.03125 84.375 680.15625 67.5 658.59375 67.5 C 637.03125 67.5 620.15625 84.375 620.15625 105.9375 C 620.15625 126.5625 637.03125 144.375 658.59375 144.375 Z M 658.59375 144.375 "/><path style=" stroke:none;fill-rule:nonzero;fill:#000000;fill-opacity:1;" d="M 272.34375 524.0625 C 312.65625 518.4375 352.96875 515.625 392.34375 515.625 L 392.34375 417.1875 L 256.40625 417.1875 C 257.34375 453.75 262.96875 489.375 272.34375 524.0625 Z M 272.34375 524.0625 "/><path style=" stroke:none;fill-rule:nonzero;fill:#000000;fill-opacity:1;" d="M 279.84375 263.4375 C 317.34375 268.125 354.84375 270.9375 393.28125 270.9375 L 393.28125 141.5625 C 345.46875 148.125 304.21875 195 279.84375 263.4375 Z M 279.84375 263.4375 "/><path style=" stroke:none;fill-rule:nonzero;fill:#000000;fill-opacity:1;" d="M 393.28125 669.375 L 393.28125 539.0625 C 355.78125 539.0625 317.34375 541.875 279.84375 546.5625 C 304.21875 615 345.46875 661.875 393.28125 669.375 Z M 393.28125 669.375 "/><path style=" stroke:none;fill-rule:nonzero;fill:#000000;fill-opacity:1;" d="M 232.96875 417.1875 L 140.15625 417.1875 C 142.03125 461.25 155.15625 505.3125 178.59375 542.8125 C 201.09375 537.1875 224.53125 531.5625 248.90625 527.8125 C 239.53125 491.25 233.90625 454.6875 232.96875 417.1875 Z M 232.96875 417.1875 "/><path style=" stroke:none;fill-rule:nonzero;fill:#000000;fill-opacity:1;" d="M 248.90625 283.125 C 224.53125 279.375 201.09375 273.75 178.59375 268.125 C 155.15625 306.5625 142.03125 349.6875 140.15625 393.75 L 232.96875 393.75 C 233.90625 356.25 239.53125 318.75 248.90625 283.125 Z M 248.90625 283.125 "/><path style=" stroke:none;fill-rule:nonzero;fill:#000000;fill-opacity:1;" d="M 320.15625 154.6875 C 269.53125 171.5625 224.53125 204.375 192.65625 247.5 C 213.28125 253.125 233.90625 256.875 256.40625 260.625 C 269.53125 220.3125 291.09375 184.6875 320.15625 154.6875 Z M 320.15625 154.6875 "/><path style=" stroke:none;fill-rule:nonzero;fill:#000000;fill-opacity:1;" d="M 192.65625 563.4375 C 224.53125 606.5625 269.53125 638.4375 320.15625 656.25 C 291.09375 626.25 268.59375 590.625 256.40625 550.3125 C 233.90625 554.0625 213.28125 558.75 192.65625 563.4375 Z M 192.65625 563.4375 "/><path style=" stroke:none;fill-rule:nonzero;fill:#000000;fill-opacity:1;" d="M 576.09375 393.75 L 668.90625 393.75 C 667.03125 349.6875 653.90625 305.625 630.46875 268.125 C 607.96875 273.75 584.53125 279.375 559.21875 283.125 C 569.53125 318.75 575.15625 356.25 576.09375 393.75 Z M 576.09375 393.75 "/><path style=" stroke:none;fill-rule:nonzero;fill:#000000;fill-opacity:1;" d="M 256.40625 393.75 L 392.34375 393.75 L 392.34375 295.3125 C 352.03125 295.3125 311.71875 291.5625 272.34375 286.875 C 262.96875 321.5625 257.34375 357.1875 256.40625 393.75 Z M 256.40625 393.75 "/><path style=" stroke:none;fill-rule:nonzero;fill:#000000;fill-opacity:1;" d="M 576.09375 417.1875 C 575.15625 454.6875 569.53125 491.25 560.15625 527.8125 C 584.53125 531.5625 607.96875 537.1875 631.40625 542.8125 C 654.84375 504.375 667.96875 461.25 669.84375 417.1875 Z M 576.09375 417.1875 "/><path style=" stroke:none;fill-rule:nonzero;fill:#000000;fill-opacity:1;" d="M 416.71875 539.0625 L 416.71875 669.375 C 464.53125 662.8125 505.78125 615.9375 530.15625 547.5 C 491.71875 541.875 454.21875 539.0625 416.71875 539.0625 Z M 416.71875 539.0625 "/><path style=" stroke:none;fill-rule:nonzero;fill:#000000;fill-opacity:1;" d="M 488.90625 656.25 C 539.53125 639.375 584.53125 606.5625 616.40625 563.4375 C 595.78125 558.75 575.15625 554.0625 552.65625 550.3125 C 539.53125 589.6875 517.96875 626.25 488.90625 656.25 Z M 488.90625 656.25 "/><path style=" stroke:none;fill-rule:nonzero;fill:#000000;fill-opacity:1;" d="M 714.84375 404.0625 C 714.84375 232.5 576.09375 93.75 404.53125 93.75 C 232.96875 93.75 94.21875 233.4375 94.21875 404.0625 C 94.21875 575.625 232.96875 714.375 404.53125 714.375 C 576.09375 715.3125 714.84375 576.5625 714.84375 404.0625 C 714.84375 405 714.84375 405 714.84375 404.0625 Z M 404.53125 693.75 C 245.15625 690.9375 118.59375 559.6875 121.40625 400.3125 C 124.21875 245.625 248.90625 120 404.53125 117.1875 C 562.96875 120 689.53125 251.25 686.71875 410.625 C 683.90625 565.3125 559.21875 690.9375 404.53125 693.75 Z M 404.53125 693.75 "/><path style=" stroke:none;fill-rule:nonzero;fill:#000000;fill-opacity:1;" d="M 552.65625 417.1875 L 416.71875 417.1875 L 416.71875 515.625 C 457.03125 515.625 497.34375 519.375 536.71875 524.0625 C 546.09375 489.375 551.71875 453.75 552.65625 417.1875 Z M 552.65625 417.1875 "/><path style=" stroke:none;fill-rule:nonzero;fill:#000000;fill-opacity:1;" d="M 616.40625 247.5 C 584.53125 204.375 539.53125 172.5 488.90625 154.6875 C 517.96875 184.6875 540.46875 221.25 552.65625 260.625 C 575.15625 256.875 595.78125 252.1875 616.40625 247.5 Z M 616.40625 247.5 "/><path style=" stroke:none;fill-rule:nonzero;fill:#000000;fill-opacity:1;" d="M 416.71875 141.5625 L 416.71875 271.875 C 454.21875 271.875 492.65625 269.0625 530.15625 264.375 C 504.84375 195 463.59375 148.125 416.71875 141.5625 Z M 416.71875 141.5625 "/><path style=" stroke:none;fill-rule:nonzero;fill:#000000;fill-opacity:1;" d="M 536.71875 286.875 C 496.40625 292.5 456.09375 295.3125 415.78125 295.3125 L 415.78125 393.75 L 551.71875 393.75 C 551.71875 357.1875 546.09375 321.5625 536.71875 286.875 Z M 536.71875 286.875 "/></g></svg>